<svg width="652" height="408" viewBox="0 0 652 408" fill="none" xmlns="http://www.w3.org/2000/svg">
<path d="M523.245 134.106H543.947L550.739 112.379H582.637L589.356 134.106H610.059L566.241 6L523.241 134.106H523.244H523.245ZM566.891 62.4471L577.82 97.2583H555.489L566.484 62.446H566.891V62.4471ZM651.664 109.827L648.985 101.453L604.601 97.2688L609.793 112.339L651.661 109.828L651.664 109.827ZM528.727 97.2676L484.345 101.456L481.664 109.827L523.535 112.339L528.726 97.2688L528.727 97.2676Z" fill="#DD3735"/>
<path d="M311 140C349.66 140 381 108.66 381 70C381 31.3404 349.66 0 311 0C272.34 0 241 31.3404 241 70C241 108.66 272.34 140 311 140Z" fill="#FFD539"/>
<path d="M337.236 26.3186C337.547 26.2304 337.855 26.1562 338.161 26.0918L339.071 27.2062C339.007 27.4666 338.945 27.7284 338.887 27.9902C338.187 28.1134 337.466 28.3136 336.725 28.5894C336.862 27.839 337.033 27.0802 337.237 26.3172L337.236 26.3186ZM317.548 47.4222C311.248 57.4182 307.776 67.7558 308.791 73.3362C320.621 75.2682 331.559 74.8762 341.559 72.6278C349.3 70.889 355.902 68.18 361.299 65.016C362.422 64.3566 363.469 63.5208 364.098 62.8152C358.277 61.649 350.473 57.5708 344.981 52.206C338.243 45.626 335.083 37.583 336.726 28.588C330.727 30.8182 323.547 37.9078 317.548 47.4208V47.4222ZM339.44 25.8958C332.969 47.0848 355.901 59.3698 364.966 60.9434C368.603 61.5734 365.418 64.9194 362.31 66.7394C353.972 71.631 334.859 79.9722 307.181 75.0918C302.916 62.5478 323.827 27.4008 339.44 25.8958Z" fill="black"/>
<path fill-rule="evenodd" clip-rule="evenodd" d="M332.911 53.2602C332.73 54.1043 332.827 54.9845 333.187 55.769C333.547 56.5533 334.151 57.2001 334.909 57.6128C335.668 58.0256 336.54 58.1818 337.394 58.058C338.249 57.9348 339.04 57.5385 339.651 56.9282C340.262 56.318 340.658 55.5261 340.781 54.6714C340.904 53.8172 340.748 52.946 340.336 52.1878C339.923 51.4295 339.276 50.8249 338.492 50.4644C337.707 50.1041 336.827 50.0074 335.983 50.1886C336.406 50.3034 336.791 50.5274 337.099 50.8382C337.727 51.4708 337.971 52.3898 337.739 53.2504C337.625 53.6732 337.403 54.0596 337.092 54.369C336.782 54.6787 336.397 54.9017 335.975 55.0158C335.552 55.1292 335.107 55.1306 334.682 55.0186C334.259 54.9061 333.873 54.6845 333.562 54.376C333.252 54.0679 333.027 53.6836 332.911 53.2616V53.2602ZM361.823 65.1C363.01 65.1 364.171 64.7486 365.156 64.0892C366.143 63.4298 366.913 62.4924 367.367 61.3956C367.821 60.2993 367.94 59.093 367.708 57.9292C367.477 56.7655 366.905 55.6966 366.066 54.8576C365.227 54.0186 364.158 53.4471 362.995 53.2154C361.83 52.9837 360.623 53.1026 359.527 53.557C358.431 54.0111 357.494 54.7799 356.835 55.7662C356.175 56.7529 355.824 57.913 355.824 59.0996C359.88 62.0354 365.746 61.4418 361.823 65.1Z" fill="black"/>
<path fill-rule="evenodd" clip-rule="evenodd" d="M307.415 129.676C308.794 113.893 303.679 106.73 294.613 92.4182C285.545 78.1074 289.413 51.8112 314.038 53.9644C353.906 57.4532 338.096 116.456 307.415 129.676Z" fill="black"/>
<path fill-rule="evenodd" clip-rule="evenodd" d="M286.322 123.74C293.269 109.501 291.061 100.981 287.724 84.371C284.387 67.76 297.423 44.597 319.639 55.433C355.61 72.9764 319.705 122.395 286.324 123.74H286.322Z" fill="black"/>
<path fill-rule="evenodd" clip-rule="evenodd" d="M268.81 110.704C280.397 99.8984 281.387 91.1526 284.226 74.4506C287.064 57.7458 307.534 40.7932 324.392 58.87C351.685 88.1398 300.455 121.408 268.81 110.702V110.704Z" fill="black"/>
<path fill-rule="evenodd" clip-rule="evenodd" d="M257.005 92.3944C271.695 86.4598 275.755 78.6506 284.389 64.0738C293.025 49.497 318.21 41.0046 327.47 63.924C342.464 101.032 282.713 113.732 257.006 92.3958L257.005 92.3944Z" fill="black"/>
<path fill-rule="evenodd" clip-rule="evenodd" d="M252.707 70.833C268.548 70.5558 275.136 64.7206 288.422 54.2066C301.708 43.6926 328.265 44.7902 328.695 69.5072C329.393 109.519 269.06 99.9642 252.707 70.8316V70.833Z" fill="black"/>
<path fill-rule="evenodd" clip-rule="evenodd" d="M256.18 49.2996C271.066 54.7176 279.31 51.632 295.481 46.5766C311.651 41.5226 336.052 52.0646 327.597 75.2934C313.909 112.9 261.007 82.3564 256.18 49.2996Z" fill="black"/>
<path fill-rule="evenodd" clip-rule="evenodd" d="M267.404 30.485C279.361 40.8786 288.163 40.95 305.071 42.0266C321.979 43.1046 340.978 61.6896 324.763 80.3446C298.505 110.55 260.062 63.077 267.403 30.485H267.404Z" fill="black"/>
<path fill-rule="evenodd" clip-rule="evenodd" d="M284.396 16.8168C291.833 30.8056 300.024 34.027 315.423 41.09C330.823 48.1544 341.901 72.3142 320.075 83.9202C284.739 102.708 265.863 44.6138 284.396 16.8182V16.8168Z" fill="black"/>
<path fill-rule="evenodd" clip-rule="evenodd" d="M305.343 10.2774C307.272 26.0036 313.765 31.9466 325.61 44.0594C337.454 56.1736 339.139 82.6994 314.604 85.7122C274.883 90.5884 278.079 29.5876 305.343 10.2774Z" fill="black"/>
<path fill-rule="evenodd" clip-rule="evenodd" d="M327.12 11.6844C323.286 27.0578 327.218 34.9314 333.933 50.4868C340.651 66.0408 332.718 91.4088 308.733 85.4266C269.902 75.747 294.747 19.9416 327.12 11.6844Z" fill="black"/>
<path fill-rule="evenodd" clip-rule="evenodd" d="M347.058 20.7199C325.62 36.974 337.928 48.7116 337.928 79.7734C337.928 108.217 323.716 97.1544 303.468 82.9766C270.686 60.0208 313.878 16.828 347.058 20.7199Z" fill="black"/>
<path d="M337.825 72.485C337.758 72.0468 337.639 70.7182 337.559 69.531C337.429 67.5878 336.698 61.2766 336.348 59.0758L336.211 58.2078L337.333 58.0818C340.351 57.7416 341.929 54.1478 340.14 51.688C339.552 50.8788 337.79 49.9912 336.773 49.9912H335.968L336.823 50.799C337.457 51.3968 337.68 51.8056 337.68 52.3698C337.68 53.3904 337.134 54.3914 336.389 54.7302C335.815 54.992 335.773 54.9626 335.644 54.2374C334.632 48.4778 334.307 41.6598 334.887 38.3628C335.097 37.1756 335.478 35.6104 335.737 34.8866L336.207 33.5678L336.227 34.6458C336.239 35.2394 336.451 36.6954 336.696 37.8826C338.329 45.7576 343.684 52.647 352.306 57.9656C354.595 59.3782 358.629 61.299 360.9 62.0592C361.868 62.3812 362.762 62.7494 362.885 62.8712C363.297 63.2842 362.825 63.8736 361.323 64.8214C356.731 67.7222 349.347 70.6384 342.476 72.2666C337.586 73.4244 337.967 73.4062 337.825 72.485Z" fill="white"/>
<path fill-rule="evenodd" clip-rule="evenodd" d="M135.921 59.5364V59.535C135.861 58.1411 135.801 56.7473 135.66 55.3549L135.638 55.1732C135.323 52.7219 135.003 50.2295 134.464 47.8265C134.05 45.7911 133.364 43.8494 132.672 41.9077L132.516 41.5046C131.693 39.3613 130.859 37.1868 129.819 35.1387C128.485 32.5327 126.845 30.1368 125.203 27.7352C124.637 26.9077 124.071 26.0802 123.517 25.2427C122.842 24.2591 122.077 23.3621 121.312 22.4636C120.455 21.4559 119.596 20.4509 118.867 19.3239C118.086 18.0933 116.934 17.0529 115.785 16.1076C113.944 14.5889 112.012 13.2149 110.081 11.8921C108.609 10.8488 107.137 9.8553 105.571 8.95539C104.664 8.43446 103.708 7.99018 102.756 7.55018C102.404 7.38697 102.055 7.22377 101.707 7.05769C101.403 6.91145 101.099 6.75819 100.795 6.60487C99.6353 6.01728 98.4656 5.42683 97.1536 5.16426C96.8255 5.08723 96.5026 4.9886 96.1869 4.86897C96.1123 4.84059 96.035 4.81507 95.9563 4.78669C95.5668 4.64631 95.1787 4.50202 94.7921 4.35377C94.1402 4.10676 93.4939 3.86122 92.8269 3.65119C92.2938 3.47944 91.7649 3.29634 91.2374 3.11183C90.1712 2.74275 89.1051 2.37373 87.9961 2.08985C86.3914 1.66401 84.7342 1.38014 83.077 1.14173C81.8423 0.954356 80.587 0.849314 79.3386 0.744273C78.7291 0.694224 78.1201 0.639353 77.5115 0.5796C76.3155 0.436289 75.1196 0.295787 73.9692 0.248912C72.7969 0.192882 71.6238 0.158335 70.4504 0.145274C69.8565 0.133921 69.2668 0.124034 68.6799 0.108409C68.4728 0.097057 68.2642 0.0828351 68.0529 0.0686751C67.3735 0.0232641 66.6802 -0.0236108 66.0132 0.0133162C64.6728 0.0687362 63.3361 0.194774 62.0082 0.39088C61.0758 0.50233 60.1461 0.637218 59.22 0.79536C58.8747 0.852123 58.5322 0.908947 58.1939 0.960033C57.4412 1.05372 56.6886 1.12464 55.9359 1.19563C55.1722 1.26661 54.4072 1.3376 53.6407 1.43409C52.6425 1.57502 51.647 1.73591 50.6549 1.9167C50.2061 1.99476 49.76 2.07283 49.3181 2.14662C49.0646 2.19752 48.8135 2.26002 48.5655 2.33399C48.3086 2.40498 48.0531 2.4759 47.7976 2.52278C47.4234 2.60365 47.0422 2.66755 46.6611 2.7328C45.9181 2.85774 45.1696 2.98408 44.4404 3.2353C42.4655 3.85273 40.4852 4.56385 38.5531 5.31892C36.7578 6.07691 35.0095 6.88166 33.3081 7.82838C31.8083 8.68 30.3762 9.67073 28.9537 10.6544L28.248 11.1426C26.658 12.2362 25.107 13.3885 23.5982 14.5974C22.1288 15.7826 20.7478 17.1069 19.4137 18.4326C18.9303 18.9293 18.5078 19.4872 18.0782 20.0535C17.8531 20.3502 17.6253 20.6497 17.3877 20.9406C17.0922 21.2955 16.7967 21.6461 16.5011 21.9967C15.6424 23.0006 14.8035 24.0223 13.9849 25.061C13.3041 25.9411 12.6702 26.8481 12.0294 27.7608C11.8085 28.0758 11.5875 28.3909 11.3624 28.7075C9.80185 30.882 8.46779 33.2041 7.22626 35.5248C6.74158 36.4444 6.27471 37.3738 5.82592 38.3124L5.79967 38.3635C5.57336 38.8268 5.3441 39.2886 5.11193 39.7488C4.62624 40.6948 4.16574 41.6542 3.73092 42.6259C3.26966 43.6195 2.90231 44.7095 2.62611 45.7982C1.9779 48.1284 1.34952 50.4643 0.741028 52.8057C0.188629 54.8893 0.0505222 57.0667 0.00771325 59.1972C-0.0392378 61.0565 0.136147 62.8691 0.317062 64.7256L0.326729 64.8321C0.340538 64.9655 0.32811 65.1046 0.315681 65.2465C0.285301 65.6099 0.253532 65.9804 0.648506 66.2515C0.464828 66.7724 0.602928 67.0605 0.876373 67.1499C0.700981 67.4367 0.760368 67.6666 0.819748 67.8937C0.868088 68.081 0.91642 68.2655 0.833557 68.4799C0.800415 68.5466 0.88604 68.6616 0.970276 68.7737C1.00343 68.8191 1.03657 68.8631 1.06142 68.9029C1.06142 68.9497 1.05728 69.0022 1.05176 69.0533C1.04209 69.164 1.03104 69.2818 1.06142 69.3784C1.08076 69.5515 1.12357 69.7247 1.16638 69.9035C1.22991 70.159 1.29343 70.423 1.29343 70.704C1.29343 70.9056 1.39563 71.1256 1.49783 71.3428C1.56136 71.4804 1.62488 71.6167 1.66078 71.7459C1.70636 71.8864 1.66078 72.1234 1.56826 72.2185C1.29205 72.5492 1.33763 72.8331 1.75193 73.0233C1.95908 73.5698 1.90799 73.8551 1.86241 74.1134L1.84584 74.2099C1.90247 74.4725 1.8707 74.6272 1.84998 74.7294C1.83617 74.7919 1.82789 74.8344 1.84584 74.8713C2.21319 75.6293 2.35267 76.4809 2.39687 77.3326C2.39687 77.4915 2.46177 77.6505 2.53635 77.835L2.58192 77.9486C2.62749 77.9486 2.58192 78.847 2.58192 78.847C2.74212 78.7477 2.88298 78.6952 3.03075 78.6398C3.09428 78.6157 3.1578 78.593 3.22409 78.5646C3.36495 79.1792 3.50029 79.7498 3.68535 80.2707C3.91598 80.6482 3.91598 80.8356 3.82483 80.881C3.87455 81.1109 3.91598 81.3352 3.95879 81.5581C4.07341 82.1655 4.18527 82.7546 4.41866 83.3436C4.41866 82.4451 4.33166 81.5467 4.19218 80.6936L4.49738 80.8072H4.50014C5.01112 81.0017 5.44752 81.1663 5.75687 81.1663L5.80382 81.013C5.83421 80.908 5.86459 80.8029 5.89635 80.7405C5.75825 80.5985 5.63119 80.4211 5.50276 80.2437C5.38493 80.069 5.25476 79.9034 5.11331 79.7483C5.1796 80.018 5.15199 80.1671 5.12989 80.2835C5.1216 80.3303 5.11331 80.3714 5.11331 80.4126C4.93516 80.3189 4.71282 80.2281 4.49186 80.1344L4.46976 80.1259L4.50705 80.079C4.6783 79.8605 4.85506 79.6348 5.11331 79.3708C5.11331 78.9435 4.88544 78.5617 4.23914 78.6114C4.3579 78.5703 4.47667 78.522 4.59958 78.4723C4.76115 78.4056 4.93102 78.336 5.11331 78.2807C5.4268 78.1061 5.33427 77.8407 5.21965 77.5057C5.13059 77.286 5.07919 77.0522 5.06774 76.8145C5.09536 76.3319 4.94069 75.8507 4.78326 75.3582C4.6783 75.0289 4.57058 74.6954 4.51534 74.3533C4.38 73.5726 4.33995 72.5592 4.30266 71.5869C4.27504 70.9127 4.25018 70.2569 4.19356 69.7133C3.96845 69.5203 3.77235 69.895 3.68397 70.0653C3.67216 70.0911 3.65831 70.1158 3.64254 70.1391C3.78064 71.2746 3.91874 72.4101 4.00851 73.5485C3.78616 72.7792 3.62182 71.946 3.44505 71.0504L3.32076 70.4216C3.30281 70.5451 3.28486 70.643 3.26966 70.7268C3.2448 70.8673 3.22823 70.9681 3.22823 71.0873C3.03213 71.286 3.13847 71.5273 3.25999 71.8012C3.28033 71.8469 3.30012 71.8928 3.31938 71.9389C2.9976 71.7941 2.62888 71.8452 2.62888 71.8452V73.1709C2.38559 72.9145 2.17619 72.6262 2.00603 72.3136C1.93837 72.2001 1.87484 72.0894 1.80303 71.9843C1.75752 71.7887 1.71745 71.5918 1.68288 71.3939C1.64973 71.2136 1.61659 71.0333 1.57516 70.8531C1.63592 70.6884 1.61245 70.5692 1.59312 70.4656C1.5826 70.4219 1.57658 70.3772 1.57516 70.3322C1.52125 69.9533 1.47475 69.5732 1.43568 69.1924C1.48125 69.1456 1.39011 68.4387 1.39011 68.4387C1.49783 68.4515 1.59312 68.4643 1.68012 68.4771H1.6815C1.89279 68.5054 2.05714 68.5281 2.21871 68.5281C1.81822 67.9945 2.01018 67.6368 2.18971 67.3032C2.21595 67.2535 2.24219 67.2053 2.26567 67.157C2.31124 67.0619 2.41482 67.0037 2.51701 66.9455C2.62197 66.8873 2.72555 66.8277 2.7725 66.7298C2.87746 66.5268 3.00037 66.3366 3.12328 66.1478C3.43262 65.6695 3.73921 65.1968 3.73921 64.5525C3.73921 64.297 3.78893 64.0259 3.83864 63.7562C3.87179 63.5759 3.90493 63.3971 3.92288 63.2268C4.01541 62.4205 4.10656 61.6158 4.15075 60.811C4.18527 60.4306 4.19356 60.0502 4.20323 59.6712C4.2198 59.014 4.23499 58.3654 4.38276 57.7338C4.75287 56.0802 5.21275 54.4224 5.7182 52.7645C6.09167 51.5817 6.50578 50.4128 6.95972 49.2601L7.26079 48.4496C7.84357 46.8741 8.42222 45.3099 9.16935 43.8168C10.125 41.8467 11.1898 39.9333 12.26 38.0129C12.5804 37.4395 12.8995 36.8646 13.2171 36.2884C14.093 34.7452 15.0141 33.2295 15.9791 31.7435L16.2885 31.2467C17.1046 29.9367 17.9346 28.6067 18.8765 27.386C20.35 25.4458 21.9603 23.6445 23.7542 22.035C24.2169 21.6077 24.6726 21.1762 25.1297 20.7448C26.4872 19.463 27.8392 18.187 29.3197 17.0175C31.8898 14.9763 34.6281 13.1692 37.5036 11.6167C39.8513 10.3407 42.2888 9.34144 44.7263 8.39472C45.6419 8.03559 46.6031 7.79005 47.5642 7.5431C48.2492 7.36708 48.9342 7.19252 49.604 6.97535C51.4435 6.35932 53.2844 6.07691 55.2164 6.02864C56.3972 5.98176 57.5393 5.85121 58.7159 5.71638L58.8954 5.69648C60.0002 5.60707 61.1051 5.5091 62.301 5.3672C62.1629 5.55171 62.1173 5.6482 62.0732 5.74049L62.0704 5.74476C61.8052 6.14216 61.5276 6.54103 61.2501 6.93989C60.9989 7.29689 60.7512 7.65644 60.5071 8.01863C60.2903 8.34077 60.061 8.67579 59.8318 9.01075L59.2186 9.91066C59.0211 10.1803 58.8181 10.4472 58.6165 10.7154C58.0668 11.4464 57.513 12.1817 57.009 12.9439C56.5684 13.5953 56.1445 14.2553 55.7177 14.9154C55.1253 15.8503 54.5129 16.7717 53.881 17.6789C53.1343 18.6887 52.3639 19.6796 51.5706 20.6511C51.1894 21.1265 50.8082 21.6006 50.4312 22.0804C49.6772 23.0938 48.9439 24.1186 48.2119 25.142C47.4754 26.1814 46.7282 27.2129 45.9706 28.2362C45.3684 29.0808 44.7497 29.9111 44.1338 30.7358C43.3303 31.7968 42.5475 32.8744 41.7861 33.9677C41.0578 35.0224 40.3556 36.0957 39.68 37.1868C39.2519 37.8653 38.8224 38.5466 38.3805 39.2194C37.5298 40.521 36.6791 41.8112 35.8284 43.1V43.1014H35.827C34.9763 44.393 34.1256 45.6818 33.2749 46.9834C31.9395 48.9705 30.6054 50.9136 29.2272 52.9022C29.1629 52.992 29.0773 53.0633 28.9786 53.1094C28.9399 53.1336 28.8999 53.1563 28.8598 53.1847C28.6223 53.5821 28.538 53.8617 28.4704 54.086C28.4345 54.208 28.4013 54.3145 28.353 54.4153C27.9856 55.125 27.6183 55.8346 27.2026 56.4989C27.0645 56.726 26.8919 56.9375 26.7165 57.1518C26.6005 57.2938 26.4831 57.4357 26.374 57.5862C26.3547 57.3505 26.4776 57.1646 26.6019 56.9758C26.7773 56.709 26.9554 56.4393 26.74 56.0234C26.6226 56.2221 26.5038 56.4067 26.3837 56.5912C26.2732 56.7615 26.1627 56.9318 26.0522 57.1135L25.4998 58.2462C25.5343 58.2731 25.573 58.2973 25.6117 58.3228C25.7815 58.4321 25.9459 58.5372 25.6835 58.7671C25.6093 58.8968 25.5375 59.0278 25.468 59.1603C25.404 59.2836 25.3377 59.4057 25.2692 59.5264C25.4998 59.3831 25.6365 59.2426 25.776 59.0524C25.776 59.5094 25.5633 59.8912 25.3562 60.2659L25.2692 60.4221C25.1311 60.7059 24.8411 60.9373 24.5676 61.1545C24.4781 61.2237 24.3906 61.2956 24.3052 61.3702C24.3273 61.3958 24.424 61.444 24.5179 61.4937C24.5877 61.5256 24.6547 61.5636 24.7182 61.6073C24.9087 61.542 25.0399 61.4568 25.1325 61.3972C25.2402 61.3276 25.2927 61.295 25.3175 61.3688L25.428 61.2268C25.5159 61.1301 25.5873 61.0187 25.6393 60.8976C25.8216 60.4235 26.0978 60.0459 26.5577 59.8558C26.7372 59.7635 26.8698 59.6286 27.0023 59.4938L27.0162 59.4782L27.9511 58.4931H27.9525C29.0297 57.3633 30.1041 56.2377 31.0653 55.0256C32.3496 53.4217 33.5511 51.7795 34.7526 50.1358C35.3602 49.3027 35.9706 48.4695 36.5893 47.642C37.1514 46.8897 37.7867 46.1403 38.4081 45.4065C38.6484 45.1226 38.8873 44.8387 39.118 44.5619C39.2326 45.4789 39.187 46.3603 39.1414 47.2119L39.118 47.6888C39.0434 48.6256 38.9812 49.5624 38.9205 50.5091C38.868 51.3295 38.8141 52.1542 38.7506 52.9888C38.7271 53.3436 38.7271 53.6985 38.7271 54.0533C38.7271 54.4082 38.7271 54.763 38.7037 55.1193C38.6986 55.2099 38.6751 55.2984 38.6346 55.379C38.5927 55.4598 38.5682 55.5488 38.5628 55.6402C38.5628 55.8772 38.5987 56.1242 38.6332 56.3726C38.6678 56.6224 38.7023 56.8708 38.7023 57.1078C38.6346 57.9694 38.5545 58.8182 38.4758 59.667C38.3929 60.547 38.3101 61.4241 38.241 62.3155C38.2051 62.598 38.299 62.8833 38.3874 63.1487C38.415 63.2367 38.444 63.3233 38.4675 63.4056C38.3667 64.5326 38.4095 65.6894 38.4537 66.8604C38.5089 68.3436 38.5642 69.8524 38.3308 71.3598C38.6526 70.8389 38.7451 70.5082 38.7451 70.1775C38.7727 69.9915 38.7644 69.8056 38.7561 69.6054C38.7498 69.4967 38.7461 69.3879 38.7451 69.279V68.8049C38.7589 68.521 38.7907 68.2301 38.821 67.9391C38.8804 67.3572 38.9426 66.7681 38.8818 66.199C38.7893 65.2522 38.7893 64.3538 38.9743 63.4539C39.0103 63.3091 39.0116 63.1487 39.013 62.9798C39.0158 62.7101 39.0172 62.4191 39.1594 62.1282V62.8379C39.1497 63.461 39.1456 64.0826 39.1428 64.7058C39.1318 66.7809 39.1221 68.8574 38.839 70.9326C38.828 70.9922 38.8307 71.0631 38.8335 71.137C38.8431 71.3541 38.8514 71.5841 38.473 71.5486C38.2659 71.9687 38.2866 72.3335 38.3046 72.65C38.3225 72.9736 38.3377 73.2504 38.1057 73.4875C38.0435 73.5513 38.1015 73.7571 38.1609 73.9729C38.1927 74.0836 38.2245 74.1972 38.2397 74.2936C38.0546 74.8628 38.0546 74.8628 38.3308 74.9097C38.3543 75.4377 38.3902 75.9416 38.4247 76.4398C38.4592 76.9223 38.4938 77.4021 38.5145 77.8918C38.9661 76.7889 39.0006 75.6634 39.0365 74.5335C39.0586 73.8238 39.0821 73.1099 39.2064 72.3988L39.2091 72.4385C39.2533 73.1837 39.2989 73.9289 39.2519 74.7152C39.2519 75.9046 39.2105 77.0458 39.1663 78.2282L39.1608 78.363C39.1608 78.5915 39.118 78.82 39.0738 79.0486L39.0683 79.0741C39.0245 79.2912 38.9858 79.5094 38.9523 79.7285C38.8804 80.1685 38.8086 80.6028 38.6539 81.0144C38.5159 81.3721 38.5352 81.866 38.5518 82.3288C38.5573 82.4792 38.5628 82.6268 38.5628 82.7673V84.57C38.6636 85.0057 38.6401 85.3293 38.6208 85.6118C38.6056 85.8488 38.5904 86.056 38.6539 86.2718L38.6443 86.3045C38.5131 86.7544 38.4716 86.8935 38.5145 87.0326L38.6539 87.7423C39.2409 87.6813 39.2865 87.9481 39.3362 88.2476C39.3638 88.4179 39.3956 88.5982 39.5295 88.7358C39.3085 89.041 39.3224 89.19 39.3376 89.3377C39.342 89.3744 39.3443 89.4114 39.3445 89.4484C39.3445 89.86 39.303 90.229 39.2588 90.6364L39.2533 90.679C39.2533 91.2297 39.2423 91.7804 39.2312 92.3254C39.2202 92.8577 39.2091 93.3843 39.2091 93.8995C39.2091 93.9705 39.2202 94.0415 39.2312 94.1124C39.2423 94.1834 39.2533 94.253 39.2533 94.3225C39.2533 94.4204 39.2091 95.6525 39.2091 95.6525C39.3017 95.793 39.2091 95.9349 39.0683 96.0769C39.0254 96.0769 38.8873 90.063 38.8873 90.063H38.1968C38.1692 90.9259 38.1706 91.7634 38.1734 92.5852C38.1775 94.4659 38.1816 96.2656 37.8281 98.1123C37.6477 98.1277 37.468 98.1509 37.2895 98.1818C37.0616 98.2187 36.8531 98.2528 36.494 98.2528C35.0675 98.2528 33.6409 98.2528 32.2143 98.2996C31.3636 98.2996 30.5253 98.311 29.687 98.3223H29.6857C28.846 98.3337 28.0063 98.3464 27.1529 98.3464C26.7413 98.3464 26.3174 98.3706 25.892 98.3947C25.4704 98.4227 25.0481 98.4388 24.6256 98.443C24.0732 98.443 23.5084 98.4075 22.9449 98.372C22.3874 98.3297 21.8288 98.3056 21.2698 98.2996C20.2547 98.2996 19.2576 98.3507 18.2578 98.4018C17.5769 98.4359 16.8961 98.4714 16.207 98.4898C15.598 98.5125 14.9889 98.5239 14.3799 98.5352C13.7474 98.548 13.1163 98.5608 12.4838 98.5849C11.6524 98.6303 10.8224 98.6743 9.99796 98.7723C9.73833 98.8049 9.50079 98.8858 9.22459 98.9795C9.1072 99.0178 8.98291 99.0604 8.84757 99.1016C8.79688 99.1008 8.74622 99.0985 8.69566 99.0945C8.50172 99.075 8.30631 99.0774 8.11287 99.1016C7.882 99.158 7.65717 99.2378 7.4417 99.34C7.2235 99.4337 7.00668 99.5288 6.77605 99.5771C6.08555 99.719 5.90187 99.9078 5.99302 100.619V101.092C5.95159 101.177 6.84096 100.984 6.98735 100.952C6.94177 100.972 6.90587 101.062 6.86306 101.174C6.82531 101.276 6.77959 101.375 6.72633 101.469C7.06468 101.337 7.28426 101.249 7.49418 101.162L7.55771 101.138C7.97753 101.34 8.36284 101.35 8.72604 101.358C8.95102 101.355 9.17566 101.377 9.39584 101.425C11.1898 101.896 13.0279 102.091 14.8674 102.275C16.0647 102.37 17.2151 102.419 18.4111 102.464C20.1125 102.559 21.8153 102.654 23.5153 102.654C24.2293 102.654 24.9322 102.619 25.6338 102.583C26.3374 102.541 27.0419 102.516 27.7467 102.511C29.0987 102.511 30.4535 102.554 31.8083 102.597H31.811C32.4339 102.619 33.0581 102.639 33.6809 102.654C33.8826 102.654 34.0952 102.643 34.3134 102.63C34.547 102.614 34.7809 102.606 35.015 102.605H38.3708C39.9314 102.555 41.4905 102.519 43.0497 102.481H43.0511C44.4818 102.447 45.9126 102.413 47.3447 102.37C48.1802 102.346 49.0253 102.311 49.8719 102.275C50.7516 102.24 51.6299 102.203 52.4972 102.179L57.7423 102.034C58.7891 102.01 59.8359 101.999 60.8758 101.987C61.848 101.976 62.8147 101.966 63.769 101.945C65.0451 101.945 66.2894 101.906 67.5558 101.868H67.5723L68.2794 101.845C69.416 101.814 70.5747 101.74 71.7264 101.668C72.2968 101.631 72.8658 101.594 73.4292 101.564C74.32 101.517 75.2107 101.426 76.1001 101.337L76.1912 101.327C76.5531 101.296 76.919 101.26 77.2864 101.225H77.2891C78.0446 101.151 78.8082 101.077 79.5485 101.045C80.3909 100.995 81.2471 100.96 82.1006 100.923C82.9264 100.887 83.7509 100.852 84.5657 100.805C85.0877 100.771 85.6111 100.731 86.1345 100.693C87.684 100.579 89.239 100.466 90.8203 100.429C91.9803 100.372 93.1542 100.366 94.3281 100.361C95.1066 100.36 95.885 100.351 96.6634 100.335C97.4823 100.311 98.3012 100.278 99.1243 100.243H99.1271C100.015 100.206 100.91 100.169 101.817 100.143L104.719 100.001C104.719 100.001 106.649 99.9532 107.616 99.8567C108.279 99.8198 108.945 99.7672 109.609 99.7147C110.601 99.6353 111.592 99.5558 112.584 99.5274C113.113 99.5032 113.642 99.5032 114.17 99.5032C114.699 99.5032 115.228 99.5032 115.757 99.4791C116.33 99.4649 116.91 99.4422 117.49 99.4209C118.632 99.3783 119.78 99.3358 120.908 99.3358C121.292 99.3358 121.694 99.3713 122.132 99.4081C122.426 99.4337 122.737 99.4607 123.07 99.4791C122.799 99.7247 122.602 99.8907 122.407 100.058L122.401 100.062L122.194 100.237C122.364 100.28 122.532 100.365 122.702 100.451L122.748 100.476C122.533 100.631 122.276 100.712 122.013 100.708C121.988 100.774 121.962 100.828 121.937 100.88C121.868 101.026 121.802 101.171 121.734 101.517H122.563C122.332 101.517 122.126 101.735 121.91 101.962C121.823 102.052 121.734 102.146 121.643 102.227C121.276 102.129 120.953 102.227 120.769 102.748C121.081 102.928 121.048 103.067 121.004 103.252L121 103.269C120.447 103.456 120.033 103.646 120.265 104.261C120.21 104.288 120.155 104.315 120.099 104.34H120.098C119.949 104.411 119.784 104.49 119.619 104.592C119.544 104.708 119.454 104.813 119.352 104.904C119.168 105.08 119.007 105.239 119.066 105.585C119.177 105.611 119.284 105.656 119.384 105.699C119.453 105.727 119.516 105.754 119.573 105.771C119.46 105.818 119.348 105.876 119.235 105.934C119.117 105.994 119 106.055 118.882 106.102C118.151 106.563 118.356 106.803 118.54 107.016L118.609 107.097L118.603 107.101C118.465 107.195 118.33 107.286 118.193 107.334C118.284 107.76 118.421 107.856 118.468 107.856C118.284 107.995 118.054 108.186 117.778 108.424C117.692 108.679 117.566 108.917 117.403 109.128C117.358 109.192 117.314 109.256 117.271 109.321C117.194 109.449 117.126 109.582 117.069 109.72C116.992 109.916 116.889 110.101 116.764 110.269C116.452 110.621 116.17 110.993 115.887 111.364C115.295 112.141 114.708 112.915 113.867 113.49C113.405 113.822 112.994 114.248 112.58 114.676C112.244 115 111.925 115.341 111.606 115.68C111.134 116.182 110.661 116.685 110.141 117.138C108.992 118.131 107.797 119.03 106.553 119.93C105.047 121.019 103.529 122.092 102.001 123.149C101.485 123.488 100.953 123.801 100.407 124.085C100.062 124.273 99.7168 124.46 99.3784 124.662C98.9227 124.934 98.4766 125.194 98.0319 125.454C97.6245 125.692 97.2185 125.929 96.8028 126.178C96.5971 126.317 96.3996 126.476 96.2007 126.635C95.8624 126.907 95.5213 127.181 95.1442 127.363C94.1416 127.803 93.0962 128.199 92.0508 128.595C91.5163 128.798 90.9819 129.001 90.4529 129.209C89.895 129.454 89.3951 129.683 88.9269 129.898C88.1176 130.27 87.4092 130.596 86.68 130.866C85.6119 131.238 84.5214 131.538 83.4153 131.764C83.1964 131.81 82.9723 131.823 82.7497 131.804C82.5743 131.798 82.3961 131.791 82.218 131.813C81.9625 131.859 81.707 131.912 81.4529 131.963C80.9253 132.071 80.3978 132.176 79.8703 132.24C78.8593 132.382 77.8484 132.501 76.8375 132.619C75.8239 132.738 74.8116 132.856 73.7993 132.998C73.1986 133.07 72.6116 133.165 72.0233 133.259C71.4358 133.358 70.8465 133.445 70.2556 133.52C69.7585 133.548 69.2434 133.524 68.7324 133.503C68.3927 133.489 68.0557 133.473 67.7256 133.473C67.5033 133.473 67.274 133.493 67.0434 133.513C66.654 133.547 66.2604 133.581 65.8847 133.521C65.2343 133.425 64.5824 133.286 63.9292 133.148C63.6154 133.081 63.301 133.016 62.986 132.954C62.9505 132.946 62.915 132.938 62.8797 132.93C62.6656 132.883 62.4073 132.825 62.2527 132.907C62.0483 133.012 61.8577 132.972 61.6644 132.931C61.5103 132.886 61.3483 132.878 61.1907 132.907C61.0664 132.934 60.938 132.887 60.8109 132.839C60.7073 132.802 60.6051 132.764 60.5029 132.764C60.4055 132.747 60.3062 132.747 60.2088 132.764C60.0917 132.783 59.9724 132.783 59.8552 132.764L59.5666 132.678C59.1689 132.559 58.7836 132.443 58.3347 132.48C57.9646 132.512 57.5904 132.393 57.2023 132.268C57.0166 132.206 56.8287 132.151 56.6389 132.104L55.3159 131.796H55.3131L54.1986 131.534C53.8773 131.431 53.5694 131.288 53.2816 131.109C52.0829 131.109 51.2999 131.062 50.5638 130.776C50.4355 130.729 50.308 130.679 50.1813 130.627C49.6772 130.426 49.1842 130.23 48.6331 130.305C48.5349 130.326 48.4332 130.32 48.3376 130.29C48.2713 130.275 48.2023 130.258 48.1263 130.258C48.074 130.182 48.0265 130.102 47.9841 130.02C47.8943 129.854 47.8045 129.689 47.7148 129.689C47.1596 129.718 46.7384 129.437 46.3186 129.157C46.0424 128.972 45.7703 128.789 45.4596 128.696C45.2538 128.625 45.0715 128.471 44.8892 128.318C44.7042 128.162 44.5191 128.009 44.312 127.938C43.9272 127.762 43.5575 127.553 43.2071 127.313C42.6216 126.937 42.0333 126.559 41.3221 126.471C41.0615 126.425 40.8071 126.347 40.5639 126.24C40.4368 126.19 40.307 126.139 40.1717 126.094L40.278 126.24C40.3566 126.355 40.4439 126.464 40.539 126.565C39.5185 126.056 38.5531 125.495 37.5975 124.941L37.5961 124.94C37.3033 124.77 37.0119 124.599 36.7205 124.433C36.5998 124.389 36.4909 124.316 36.4029 124.22C36.3589 124.178 36.3123 124.139 36.2634 124.102L35.0219 123.251C34.4474 123.372 34.1588 123.191 33.9709 123.075L33.8936 123.028C33.8854 123.023 33.8771 123.018 33.8687 123.014C33.3232 122.619 32.7432 122.29 32.1618 121.958C31.4202 121.533 30.6758 121.11 30.0047 120.553C29.8317 120.411 29.653 120.277 29.4688 120.151C29.1194 119.904 28.7783 119.664 28.5367 119.321C27.889 118.516 27.1087 117.948 26.2345 117.475C25.5606 117.106 24.9295 116.689 24.3011 116.272L24.2597 116.243C23.9351 116.008 23.6106 115.724 23.6106 115.203C23.6106 114.869 23.4752 114.537 23.0609 114.727L22.9891 114.614C22.8289 114.361 22.6646 114.102 22.4644 114.018C22.0266 113.833 21.7048 113.525 21.3858 113.217C21.3016 113.136 21.2165 113.055 21.1303 112.976C21.0002 112.854 20.8758 112.726 20.7574 112.593C20.495 112.303 20.2354 112.018 19.8874 111.889C19.0933 111.562 18.5727 110.919 18.0907 110.322L17.8642 110.044C16.9058 108.883 16.0247 107.642 15.1436 106.404C14.8398 105.974 14.536 105.546 14.228 105.121C14.163 105.034 14.0846 104.958 13.996 104.897C13.9321 104.849 13.8712 104.797 13.8137 104.741C13.9587 105.152 14.1341 105.506 14.3136 105.869C14.362 105.964 14.4103 106.061 14.4572 106.16C13.9987 105.971 13.677 105.639 13.4008 105.309C13.3538 105.357 16.5743 110.801 16.5743 110.801C16.718 111.02 16.8492 111.242 16.9803 111.461C17.1019 111.667 17.2234 111.873 17.3574 112.08C16.7907 112.134 16.2475 111.835 15.9764 111.321C15.5634 110.567 15.1022 110.093 14.1824 110.19C14.0852 109.848 14.0095 109.5 13.9559 109.148C13.7681 109.148 13.6314 109.148 13.3082 109.1C13.9243 110.082 14.5228 111.076 15.1036 112.08C15.0334 112.038 14.9639 111.994 14.895 111.95H14.8936C14.7818 111.879 14.7031 111.828 14.6409 111.798C14.9019 112.082 15.1381 112.388 15.3756 112.692C15.8907 113.356 16.3976 114.012 17.1226 114.402C17.2414 114.963 17.617 115.372 17.9899 115.779C18.342 116.165 18.6914 116.547 18.8254 117.052L18.5216 116.984L18.1791 116.909C17.9857 116.659 17.7772 116.409 17.5631 116.153C17.3676 115.918 17.1747 115.682 16.9845 115.443C17.0756 115.774 17.2124 116.057 17.3974 116.295L17.6916 116.676C18.1363 117.255 18.5727 117.825 19.1002 118.33C19.1624 118.395 19.2314 118.451 19.2991 118.503C19.4814 118.646 19.6526 118.781 19.6526 119.092C20.02 119.281 20.1594 119.326 20.2962 119.326C20.3196 119.397 20.3279 119.478 20.3376 119.556C20.3652 119.793 20.3887 120.015 20.803 119.944C21.1703 120.653 21.5363 120.653 22.0445 120.418C22.6439 121.034 22.967 121.083 23.38 120.706C23.38 120.828 23.3924 120.951 23.4034 121.069C23.4145 121.176 23.4255 121.276 23.4255 121.367C23.5774 121.288 23.5733 121.177 23.5678 121.007L23.565 120.893C23.6562 120.969 23.7335 121.03 23.7998 121.081C23.8965 121.157 23.9683 121.214 24.0221 121.269L24.0705 121.34C24.5124 121.978 24.9198 122.567 25.5399 123.071C25.9735 123.445 26.3837 123.833 26.7883 124.215C27.2012 124.602 27.6058 124.985 28.0229 125.343C29.6346 126.717 31.4313 127.855 33.2224 128.894C34.1021 129.404 34.9666 129.928 35.8298 130.451C37.139 131.243 38.4468 132.035 39.8029 132.776C42.5166 134.245 45.414 135.24 48.4039 135.95C49.5087 136.187 50.5666 136.423 51.6727 136.705C52.0732 136.824 52.4765 136.969 52.8784 137.113C53.4418 137.314 54.0053 137.517 54.5687 137.653C55.8835 137.951 57.2341 138.208 58.5543 138.461L59.0308 138.552C59.3498 138.6 59.6771 138.65 60.0444 138.695C60.2433 138.742 60.4643 138.721 60.6493 138.704C60.8482 138.685 61.0056 138.67 61.0526 138.745C61.2321 139.036 61.3813 138.989 61.5677 138.929C61.6251 138.91 61.6837 138.895 61.7431 138.884C62.0649 138.789 62.4336 138.789 62.8009 138.789C63.3009 138.807 63.7939 138.86 64.2841 138.915C65.0589 139 65.8309 139.084 66.6181 139.026C66.6871 139.026 66.7617 139.012 66.839 138.997C67.0876 138.952 67.3666 138.901 67.5433 139.26C67.8513 139.118 68.0571 139.083 68.22 139.056L68.3692 139.027C68.4147 139.428 68.3733 139.449 68.2946 139.49L68.2808 139.497L68.22 139.525C68.1303 139.568 68.0129 139.621 67.8651 139.734C69.521 140.065 71.0856 140.112 72.4639 139.734C74.8586 139.923 76.9273 139.639 78.9063 138.929L78.9795 139.029C79.1314 139.242 79.2654 139.433 79.5043 139.024C79.5885 138.891 79.7943 138.84 79.9738 138.795L80.0111 138.786C80.0898 138.768 80.1713 138.746 80.2556 138.724C80.6118 138.63 81.0013 138.529 81.2982 138.641C81.5413 138.726 81.6904 138.631 81.8368 138.539C81.939 138.472 82.0398 138.408 82.1724 138.408C82.7262 138.408 83.2316 138.36 83.7385 138.265C83.9042 138.237 84.0699 138.174 84.2439 138.109C84.3653 138.062 84.4883 138.019 84.6126 137.981C84.2979 137.82 83.9505 137.738 83.599 137.741C84.1514 137.457 84.6582 137.22 85.1651 136.988L85.1485 137.013L85.1291 137.042C85.0463 137.172 84.9565 137.316 84.7977 137.316H85.4399C85.3515 137.316 85.2465 137.482 85.1264 137.676C85.0532 137.797 84.9735 137.914 84.8875 138.025C85.6857 137.819 86.4535 137.625 87.1993 137.436H87.202L89.5318 136.84C89.2169 136.224 89.5056 136.119 89.8591 135.991C90.0732 135.913 90.3121 135.827 90.4516 135.611C89.9917 135.754 89.5318 135.895 89.0705 135.988C90.388 135.311 91.7387 134.701 93.0644 134.101L93.4967 133.906L93.8074 133.766C93.6058 134.018 93.3627 134.159 93.0216 134.355L92.8904 134.43C93.0023 134.448 93.1003 134.458 93.186 134.47C93.3089 134.484 93.4069 134.494 93.487 134.521C94.0035 134.688 94.067 134.387 94.1389 134.045C94.1692 133.9 94.201 133.749 94.2687 133.622C95.1097 133.622 95.4812 133.493 95.8762 133.355L95.9245 133.338L96.0212 133.309C96.4493 133.175 96.876 133.042 97.3055 132.866C97.7613 132.66 98.2004 132.419 98.6451 132.175C98.9144 132.027 99.1878 131.876 99.4668 131.735C99.5838 131.707 99.7046 131.703 99.8231 131.722C99.8884 131.727 99.9538 131.731 100.019 131.733C100.24 131.587 100.4 131.451 100.521 131.347C100.677 131.215 100.768 131.136 100.845 131.162C101.493 131.258 101.947 131.019 102.132 130.407L102.262 130.311C102.446 130.73 102.814 130.776 103.414 130.352C103.045 130.352 102.678 130.305 102.356 130.258C102.332 130.258 102.32 130.271 102.309 130.282C102.298 130.294 102.288 130.304 102.268 130.305L102.401 130.206C102.593 130.06 102.754 129.936 102.912 129.837C103.4 129.563 103.876 129.289 104.351 129.016H104.353C104.865 128.721 105.378 128.427 105.902 128.134C106.27 128.134 106.455 128.134 106.546 128.084C107.148 127.797 107.7 127.471 108.25 127.137C108.111 127.09 107.79 126.904 107.79 126.904C108.246 126.808 108.384 126.761 108.66 126.666H108.664C109.366 125.819 110.237 125.147 111.074 124.501C111.552 124.132 112.019 123.773 112.436 123.394C112.943 123.349 112.943 123.207 112.943 123.113L113.063 122.953C113.206 122.757 113.36 122.551 113.537 122.402C113.93 122.034 114.336 121.69 114.738 121.346C115.377 120.802 116.009 120.264 116.573 119.657C117.905 118.292 119.179 116.869 120.391 115.39L120.48 115.284C121.552 113.994 122.625 112.701 123.52 111.273C124.692 109.422 125.71 107.531 126.75 105.599L127.062 105.02C127.475 104.268 127.863 103.514 128.254 102.761C128.646 102 129.04 101.239 129.457 100.478C129.544 100.335 129.732 100.146 129.87 100.146C130.465 100.079 131.061 100.018 131.657 99.9645C132.296 99.9035 132.93 99.8439 133.552 99.7687C133.788 99.7289 134.06 99.5841 134.306 99.455L134.426 99.3911C134.355 99.2655 134.291 99.1357 134.235 99.0022C134.18 98.8745 134.125 98.7495 134.058 98.6332C133.961 98.4901 133.853 98.3548 133.735 98.2286C133.617 98.1025 133.509 97.9673 133.411 97.8241C133.238 97.5829 133.09 97.3242 132.969 97.052L132.954 97.0222C132.891 96.9186 132.829 96.8235 132.77 96.7298C132.693 96.6091 132.615 96.4913 132.539 96.3565C132.25 95.8358 131.987 95.3 131.752 94.7512L131.73 94.6845C131.683 94.5425 131.62 94.3523 131.661 94.2303C132.095 93.2651 132.389 92.2616 132.683 91.2595C132.952 90.344 133.22 89.4299 133.593 88.5485C134.214 87.0411 134.491 85.3818 134.761 83.741C134.83 83.3209 134.899 82.9036 134.974 82.4877C135.22 81.0045 135.386 79.5212 135.553 78.0366C135.604 77.5809 135.655 77.1239 135.709 76.6669C135.743 76.322 135.782 75.9785 135.819 75.6378V75.6364C135.931 74.623 136.043 73.6223 136.075 72.5961C136.323 70.6686 136.278 68.8489 136.232 67.0463V67.0449L136.216 66.3437C136.174 64.7114 136.091 63.0394 136.013 61.3986L135.988 60.899L135.982 60.8933C135.96 60.4419 135.941 59.9892 135.921 59.5364ZM7.00668 100.947C6.99945 100.947 6.99237 100.949 6.98597 100.952L7.00668 100.947ZM20.1028 118.584C19.9537 118.382 19.8045 118.181 19.6443 117.992L19.7824 117.849L19.9841 118.076C20.4205 118.57 20.8596 119.069 21.2974 119.603C21.2201 119.56 21.1386 119.525 21.0585 119.49C20.8541 119.399 20.6608 119.312 20.5627 119.174C20.4035 118.983 20.2506 118.786 20.1042 118.584H20.1028ZM21.2974 119.602C21.3669 119.58 21.438 119.564 21.5101 119.553C21.5788 119.543 21.6467 119.528 21.7131 119.507C21.7973 119.649 21.865 119.809 21.934 119.975C21.9796 120.086 22.0266 120.199 22.0804 120.311C21.4369 120.263 21.1151 119.979 21.2988 119.602H21.2974ZM69.1439 139.154V139.012L70.431 138.87L71.7181 138.729V138.868C70.8655 139.009 70.0062 139.104 69.1439 139.152V139.154ZM80.7334 137.926C80.163 138.054 79.554 138.143 78.974 138.228L78.7585 138.261C78.7061 138.271 78.6522 138.292 78.597 138.312C78.4119 138.38 78.231 138.448 78.1606 138.117C78.1164 138.139 78.0701 138.155 78.0225 138.166C77.9746 138.176 77.9282 138.192 77.8844 138.214C78.0197 138.636 78.271 138.604 78.5472 138.57C78.7378 138.548 78.9395 138.523 79.1245 138.638C78.6287 138.709 78.144 138.766 77.6675 138.823C77.1676 138.884 76.676 138.944 76.1816 139.015V138.922L76.5213 138.865C76.7036 138.837 76.8873 138.809 77.0557 138.777V138.638C76.5973 138.582 76.1364 138.551 75.6747 138.543C75.596 138.543 75.5007 138.607 75.4068 138.671C75.3391 138.716 75.2742 138.76 75.2162 138.78L75.201 138.783C75.0215 138.83 74.842 138.875 74.6183 138.875C74.233 138.898 73.849 138.909 73.4693 138.921H73.4679C73.0842 138.931 72.7007 138.947 72.3175 138.969C72.294 138.969 72.2581 138.956 72.2236 138.945C72.1943 138.933 72.1636 138.926 72.1324 138.922V138.777L77.3029 138.062C78.6425 137.875 79.9835 137.689 81.3327 137.503C81.3576 137.55 81.3687 137.598 81.3811 137.645C81.3906 137.693 81.4054 137.739 81.4253 137.784C81.2457 137.784 81.1049 137.826 80.9654 137.869C80.8895 137.893 80.8125 137.913 80.7348 137.929L80.7334 137.926ZM82.9223 137.27H82.925C83.4388 137.209 83.947 137.149 84.4635 137.078C82.3492 137.693 81.6587 137.787 81.428 137.456H81.4253C81.9404 137.385 82.4348 137.328 82.9223 137.271V137.27ZM41.3566 41.8623C41.9339 41.0433 42.5194 40.2243 43.1063 39.4025C44.0201 38.1304 44.9243 36.8511 45.8186 35.5645C46.0451 35.2593 46.2495 34.9428 46.4539 34.6277C46.6611 34.3027 46.8723 33.979 47.1044 33.6668C47.1983 33.539 47.3115 33.4539 47.4455 33.3559C47.5118 33.3077 47.5822 33.2566 47.6568 33.1927L47.6112 33.1033C47.6678 33.0295 47.7244 32.9613 47.7769 32.8946C47.89 32.77 47.9887 32.6324 48.0711 32.4844C48.2395 32.2148 48.3583 31.9181 48.4785 31.6158C48.5268 31.4966 48.5751 31.3745 48.6276 31.2538C48.6732 31.1644 48.8113 31.0693 48.8113 31.0693C49.2753 31.3063 49.4051 31.0083 49.528 30.7329C49.575 30.625 49.6206 30.52 49.6855 30.4533C50.0998 29.9778 50.5141 29.4598 50.8814 28.9843L51.0679 28.7344C51.2792 28.452 51.4849 28.1795 51.6645 27.8488C51.6948 27.7536 51.6437 27.6188 51.5913 27.4811C51.5664 27.413 51.5402 27.3435 51.5236 27.2796H51.3883C51.4615 27.2299 51.5347 27.1688 51.6065 27.1064C51.6714 27.0496 51.7363 26.9957 51.8026 26.9503C51.8219 26.9503 51.8329 26.9503 51.8426 26.946C51.8617 26.9352 51.8785 26.9207 51.8923 26.9035C52.1685 26.4748 52.4447 26.049 52.7209 25.67C53.2684 24.9031 53.8673 24.1765 54.5135 23.4955L54.508 23.5083C54.4196 23.7382 54.3284 23.9724 54.2373 24.1569C54.2608 24.1569 54.2732 24.1697 54.2842 24.181C54.2953 24.1939 54.3077 24.2052 54.3298 24.2052C54.6033 23.8291 54.8891 23.4657 55.1736 23.1009C55.4636 22.7319 55.7536 22.3614 56.0326 21.9782L56.0188 21.964C55.9774 21.9243 55.9359 21.8845 55.8931 21.8845C55.7826 21.9981 55.6846 22.1116 55.5852 22.2252C55.4774 22.3486 55.3697 22.4721 55.2496 22.5956C55.204 22.5474 55.1584 22.5005 55.1101 22.5005C55.5933 21.8713 56.054 21.2241 56.4911 20.5603C56.5836 20.7036 56.6761 20.8909 56.8571 21.2699C56.9634 21.0003 57.0697 20.7774 57.165 20.5744C57.2351 20.4293 57.3018 20.2827 57.3653 20.1344C57.2962 20.2068 57.2134 20.2792 57.1319 20.3516C57.0532 20.4226 56.9745 20.4907 56.9068 20.5617L56.7673 20.4183L57.5959 19.1423C58.0323 18.5036 58.4687 17.8507 58.9065 17.2006C59.3429 16.5491 59.7807 15.8976 60.2184 15.2575C60.3593 15.0502 60.5195 14.86 60.6769 14.6726C60.8772 14.4342 61.0747 14.1972 61.2321 13.9317C61.7652 12.8331 62.4888 11.8736 63.2125 10.9169C63.6724 10.3081 64.1322 9.69917 64.5424 9.05616C64.7164 8.80775 64.9415 8.58491 65.1597 8.36915L65.371 8.15773C65.5989 7.86958 65.7853 7.96748 65.969 8.20454C66.5904 9.00935 67.2105 9.82545 67.8306 10.643C68.452 11.4592 69.0721 12.2753 69.6922 13.0801L70.3495 13.919C71.0497 14.8103 71.743 15.6918 72.4086 16.63C72.9196 17.3638 73.4209 18.0976 73.9222 18.83C74.4567 19.6121 74.9911 20.3942 75.538 21.1762C76.7439 22.9247 77.9243 24.6915 79.0789 26.4762C79.9421 27.7863 80.7831 29.0964 81.6241 30.4065C82.4859 31.7492 83.3463 33.0905 84.2315 34.4318C84.5919 34.9754 84.9524 35.5148 85.3128 36.0542C86.2381 37.4381 87.1551 38.812 88.0486 40.2087H85.7009C84.9745 40.1945 84.2425 40.1619 83.5092 40.1306C82.0592 40.0682 80.6036 40.0072 79.1687 40.0682C77.1911 40.1647 75.1941 40.3464 73.2027 40.5266C72.2291 40.6146 71.2583 40.7026 70.2915 40.7807C66.5642 41.1128 62.7926 41.1568 59.0694 41.1568C58.1787 41.1568 57.2907 41.242 56.4041 41.3272C55.9566 41.3698 55.512 41.4123 55.0645 41.445L54.6847 41.4663C53.207 41.5529 51.7625 41.6366 50.2793 41.6792C48.408 41.7743 46.5892 41.8211 44.7193 41.8694H44.6683C43.9476 41.8953 43.2264 41.8991 42.5056 41.8807C42.1272 41.8765 41.7433 41.8708 41.3552 41.8708L41.3566 41.8623ZM94.1209 63.637V64.0656C94.1002 64.0673 94.08 64.073 94.0615 64.0826C94.0228 64.1023 93.9804 64.113 93.9372 64.1139C93.9174 64.0425 93.8976 63.971 93.8779 63.8995C93.7206 63.2844 93.5409 62.6755 93.3393 62.0742C92.8794 60.7003 92.3725 59.3249 91.5439 58.0971C91.015 57.3392 90.5192 56.5656 90.0193 55.7864V55.785C89.6437 55.2016 89.2666 54.6154 88.8731 54.0278C88.6884 53.7766 88.4803 53.5446 88.2516 53.3351C88.1812 53.2641 88.1107 53.1974 88.0444 53.1293L87.8484 52.9065C86.9452 51.8859 86.0254 50.8469 84.8695 50.0975C83.0406 48.9184 81.1161 47.9036 79.1176 47.0643C78.563 46.8195 78.0258 46.5349 77.5101 46.2127H78.6108L86.477 46.0708C87.0197 46.0565 87.557 46.0452 88.0928 46.0353C89.2419 46.0216 90.3906 45.9861 91.5384 45.9288C91.9513 45.9288 92.182 46.0736 92.4126 46.4497C92.8255 47.1594 93.2398 47.8691 93.6997 48.5816L93.7273 48.6341C93.7757 48.7236 93.8378 48.8399 93.8378 48.9592C93.8378 50.001 93.8378 51.0882 93.8848 52.1315C93.9055 52.6666 93.94 53.1918 93.9745 53.7155C94.009 54.2577 94.045 54.7985 94.0657 55.3506C94.0657 55.7807 94.0519 56.2164 94.0381 56.6593C94.0146 57.3363 93.9925 58.0233 94.0201 58.7103C94.0684 60.3227 94.114 61.9805 94.114 63.6341L94.1209 63.637ZM47.8874 47.6122C48.9149 47.5554 49.9368 47.4986 50.9698 47.4518C51.8122 47.4021 52.6685 47.3666 53.5233 47.3297C54.3464 47.2942 55.1695 47.2588 55.9801 47.2133L56.0229 47.2119C56.6982 47.1665 57.3294 47.1268 58.0047 47.2133L57.9494 47.2417C57.2341 47.6136 56.516 47.9855 55.889 48.4468C55.4277 48.7633 54.9816 49.138 54.5328 49.5141C54.1765 49.8122 53.8188 50.1145 53.4501 50.3871C52.6201 51.0017 51.884 51.7596 51.1949 52.5644C50.6494 53.2429 50.068 53.8674 49.4825 54.4948C49.1317 54.8709 48.7782 55.2499 48.4329 55.6402C48.2216 55.8886 48.0006 56.1313 47.7797 56.374C47.3253 56.8736 46.8723 57.3718 46.5022 57.9126C45.78 58.8764 45.135 59.9154 44.4611 61.004L44.294 61.2737L44.3589 60.0133C44.5716 55.9425 44.7829 51.9015 44.6158 47.7797L44.6213 47.7839C45.7108 47.7339 46.8 47.6772 47.8888 47.6136L47.8874 47.6122ZM74.0424 93.4922H74.0382C72.7622 93.8243 71.4599 94.1621 70.1534 94.324C69.079 94.4829 67.9701 94.4772 66.8556 94.4701L66.1969 94.4687C64.9981 94.4687 63.8491 94.4219 62.6518 94.324C61.3177 94.1848 59.9851 94.0429 58.6966 93.4255C58.2947 93.2367 57.8873 93.055 57.4785 92.8719C56.757 92.5552 56.0438 92.2191 55.3393 91.8641C54.2318 91.2964 53.1297 90.6336 52.2984 89.5931C51.8647 89.0382 51.3068 88.5613 50.7516 88.0872C50.5445 87.9112 50.3373 87.7338 50.1371 87.5549C50.0501 87.3732 49.9506 87.1816 49.8512 86.9872C49.7446 86.7822 49.6406 86.5759 49.5391 86.3683C49.1697 85.7477 48.8169 85.1168 48.4812 84.4763C48.441 84.4095 48.4099 84.3374 48.3887 84.2619C48.3683 84.1876 48.3381 84.1164 48.2989 84.0505C48.0691 83.7781 47.8529 83.4939 47.6512 83.1988C47.5367 83.0199 47.4248 82.8391 47.3157 82.6566C47.0721 82.235 46.8008 81.8309 46.5036 81.4473C46.5036 81.514 46.5133 81.5808 46.5243 81.6517C46.5368 81.7326 46.5506 81.8206 46.5506 81.9214C46.5036 81.9214 46.4581 81.9682 46.4581 81.9682L45.4886 79.5539C45.443 79.5539 45.443 79.5539 45.3988 79.6007L46.2247 82.7276C46.2013 82.7294 46.1786 82.7367 46.1584 82.7489C46.1335 82.7603 46.11 82.7716 46.0852 82.7716L46.081 82.7645C45.936 82.5797 45.814 82.3771 45.7178 82.1613C45.6267 81.7795 45.3505 81.7795 45.124 81.9214C44.9845 82.0179 44.8906 82.3472 44.9389 82.4891C45.2621 83.294 45.6294 84.1001 45.9982 84.9049C46.0893 85.1888 46.1818 85.4258 46.3199 85.7097C46.3398 85.7454 46.3634 85.7787 46.3904 85.8091C46.4456 85.8744 46.505 85.9468 46.505 86.0404C46.5602 86.154 46.6113 86.2661 46.6624 86.3782C46.7812 86.6394 46.8972 86.8949 47.0574 87.1291C47.2646 87.413 47.4828 87.6968 47.701 87.9807C47.9205 88.2646 48.1387 88.5485 48.3459 88.8323C48.6276 89.2213 48.8886 89.6343 49.1427 90.0374L49.4921 90.5839C49.5197 90.6407 49.5819 90.6648 49.6358 90.6832C49.6703 90.6974 49.702 90.7088 49.7186 90.7272C49.9534 91.4369 50.7337 91.9564 51.2861 91.6725C51.3648 92.2829 51.7584 92.669 52.1699 93.0735C52.4944 93.3928 52.8328 93.7235 53.0344 94.182C52.482 93.945 52.0691 93.7562 51.7004 93.566C51.6746 93.5941 51.6556 93.6282 51.6451 93.6654L51.6065 93.7548C52.1589 94.0386 52.7113 94.3225 53.214 94.6532L53.2706 94.6887C53.7153 94.9641 54.1544 95.2366 54.5508 95.5517C55.1032 96.0726 55.7495 96.3608 56.5256 96.5467C56.5105 96.4773 56.4813 96.4121 56.44 96.3551C57.7257 96.9711 59.0612 97.6339 60.0721 98.152C55.2869 98.2485 50.1813 98.3436 44.8892 98.4387C44.8892 97.9902 44.8782 97.5516 44.8671 97.1144C44.8535 96.6722 44.8457 96.2298 44.8436 95.7873C44.8436 95.6354 44.8575 95.4921 44.8727 95.3487C44.8947 95.1358 44.9155 94.9258 44.8878 94.6986C44.8409 93.9677 44.8091 93.2353 44.7774 92.5043C44.7166 91.0622 44.6558 89.6258 44.4735 88.2121C44.1987 85.9411 44.1987 83.7155 44.2457 81.4388C44.2788 80.5049 44.2346 79.5425 44.1904 78.593C44.1766 78.2949 44.1628 77.9968 44.1518 77.7016C44.1518 76.0452 44.1518 74.4313 44.2001 72.7792C44.2001 72.5776 44.2678 72.4101 44.3437 72.2199L44.3851 72.1135H44.526C44.5426 72.1518 44.5467 72.1986 44.5509 72.2412C44.555 72.3094 44.5605 72.3718 44.613 72.4016C44.7525 72.545 44.9845 72.7792 45.077 72.7323C45.1406 72.6883 45.211 72.6444 45.2842 72.5989C45.5259 72.4499 45.7869 72.2881 45.8573 72.0667C46.0735 71.5101 46.1828 70.9158 46.1791 70.3166C46.1791 69.9007 46.3586 69.6182 46.5381 69.3372L46.5464 69.323C46.6086 69.2307 46.6486 69.1385 46.6942 69.0349C46.7204 68.9781 46.7467 68.9171 46.7798 68.8503C46.6997 68.7897 46.6172 68.7324 46.5326 68.6786C46.4115 68.6008 46.2944 68.5165 46.1818 68.4259C46.2247 68.3025 46.2564 68.1733 46.2868 68.0441C46.3862 67.6311 46.4843 67.2209 47.0118 67.0066C47.0712 66.9739 47.0919 66.8618 47.1126 66.7482C47.1217 66.6906 47.1346 66.6337 47.1513 66.5779L47.1927 66.2131C47.2231 65.9363 47.2535 65.6525 47.288 65.3927C47.3435 65.4833 47.4093 65.5667 47.4841 65.6411L47.5145 65.6752C47.5407 65.6233 47.5727 65.5747 47.6098 65.5304C47.6098 65.4694 47.6043 65.3856 47.6001 65.3033V65.3019C47.5891 65.1344 47.5794 64.9655 47.6098 64.9655C47.9454 64.9073 47.9924 64.6575 48.0379 64.4077C48.0683 64.2445 48.0987 64.0827 48.2078 63.9719C48.2327 63.9422 48.2133 63.8825 48.1912 63.8186C48.1745 63.7756 48.1642 63.7301 48.1608 63.6838C48.1608 63.5901 48.1608 63.4496 48.205 63.4496C48.5862 63.3645 48.7091 63.0806 48.8334 62.7924C48.9162 62.5966 49.0019 62.3993 49.1704 62.2644C49.2552 62.1988 49.3258 62.1157 49.3775 62.0203C49.4189 61.9564 49.4687 61.8812 49.5377 61.7932C49.7725 62.2148 49.5929 62.5029 49.4231 62.7797C49.3264 62.9358 49.2325 63.0877 49.2159 63.258C49.9962 62.7854 50.2268 61.6498 49.767 61.3177C49.9506 61.1744 50.1343 60.987 50.2738 60.7968C50.474 60.5711 50.6812 60.354 50.8869 60.1382C51.2018 59.8089 51.5126 59.4824 51.7915 59.1404C51.9545 58.9275 52.0815 58.689 52.2086 58.4506C52.3342 58.2149 52.4599 57.9808 52.6201 57.7693C52.8024 57.5365 53.1601 57.3491 53.4349 57.2072L53.4487 57.2001C54.2773 56.7289 55.0562 56.2065 55.5631 55.4031C55.6487 55.3152 55.7716 55.23 55.8973 55.142L55.9304 55.1193C55.9948 55.0819 56.0641 55.0542 56.1362 55.0369C56.2522 55.0015 56.364 54.9688 56.3917 54.8808C56.44 54.7886 56.3019 54.5515 56.208 54.4096C56.2826 54.3699 56.3585 54.3159 56.4469 54.252C56.5726 54.1598 56.7259 54.0476 56.9441 53.9355C56.8803 54.0666 56.8236 54.2012 56.7742 54.3386C56.7397 54.4309 56.7079 54.516 56.6665 54.5998L56.8943 54.834C57.1637 54.6182 57.5296 54.384 57.868 54.1669C58.0489 54.0519 58.2229 53.9398 58.3679 53.8404C58.3679 53.7978 58.1373 53.6076 58.1373 53.6076L58.0061 53.6786L57.8983 53.7354C57.6498 53.8702 57.3418 54.0335 57.0352 54.1754C57.0688 54.1194 57.0966 54.0599 57.1181 53.998C57.136 53.9511 57.1485 53.9156 57.1747 53.8915C57.8169 53.4657 58.459 53.0399 59.1496 52.7063L59.3401 52.6169C60.8869 51.893 62.4336 51.1649 63.9803 50.4836C64.1778 50.3814 64.4236 50.4013 64.6653 50.4211C64.762 50.4296 64.8559 50.4367 64.947 50.4367C65.0851 50.4367 65.1749 50.4367 65.3144 50.3899C66.0441 50.1468 66.7805 49.9252 67.5226 49.7256C67.8416 49.632 68.209 49.5851 68.5363 49.5851C68.9782 49.5993 69.4201 49.6092 69.8621 49.6192C70.7984 49.6405 71.7361 49.6618 72.6724 49.7256C73.2704 49.7725 73.8228 49.9144 74.3752 50.1032C75.0643 50.3417 75.8004 50.6709 76.4453 51.0017C77.2256 51.4317 77.9617 51.903 78.7005 52.4239C79.2184 52.7731 79.7225 53.1378 80.2252 53.4998C81.0123 54.0675 81.794 54.631 82.6088 55.1221C83.8973 55.9269 84.9096 57.017 85.7382 58.249C85.9274 58.5215 86.1207 58.7898 86.3127 59.0581C87.1551 60.2248 87.9864 61.3759 88.3607 62.8393L89.0485 65.9662C89.0871 66.1195 89.1382 66.2727 89.1893 66.4275C89.3288 66.8476 89.4724 67.2791 89.3716 67.7617C89.1658 68.812 88.9987 69.8993 88.8358 70.9553L88.7722 71.3626L88.7695 71.3811C88.6797 71.8495 88.59 72.3207 88.6369 72.782C88.7212 74.2142 88.2033 75.459 87.6702 76.7449L87.6219 76.8571C87.5106 77.1026 87.3875 77.3423 87.2531 77.5753C87.1454 77.7711 87.0336 77.9727 86.9314 78.1827C86.9769 78.2296 87.2531 78.373 87.2987 78.373L87.713 77.5213C87.7222 77.521 87.7314 77.521 87.7406 77.5213L87.7544 77.5256C87.7683 77.5313 87.7793 77.5426 87.8055 77.571C87.6923 77.8975 87.5887 78.2381 87.4865 78.5788C87.3847 78.9237 87.2756 79.2663 87.1592 79.6064L87.0363 79.9328C86.5267 81.2983 86.0061 82.6935 85.3667 84.0079C85.1485 84.4876 84.8308 84.9163 84.5105 85.3464C84.2964 85.6373 84.0809 85.9283 83.8959 86.2363C83.6915 86.5301 83.5051 86.8339 83.3214 87.1348C83.0908 87.5109 82.8643 87.8814 82.6088 88.2234L82.6005 88.2334C82.189 88.7514 81.7788 89.2681 81.2278 89.6428C79.9863 90.5895 78.6978 91.5363 77.3651 92.2942C76.5365 92.8151 75.5698 93.099 74.6514 93.336L74.6638 93.3304L74.0424 93.4922ZM50.1371 87.5549C50.2766 88.1227 50.5969 88.5967 51.1038 88.9275C50.8731 89.2113 50.5514 89.0708 50.0901 88.3114C49.9934 88.3796 49.894 88.425 49.8111 88.4605L49.7228 88.5016L49.778 88.3696C49.8995 88.0815 50.0183 87.799 50.1371 87.5549ZM50.1426 90.8152L50.097 90.8635C50.0865 90.8586 50.0759 90.8539 50.0652 90.8493L50.0307 90.8351C49.9451 90.7954 49.8443 90.7499 49.7725 90.6761L48.6677 88.9686C48.5671 88.8349 48.5334 88.6605 48.5765 88.4974C49.0833 89.3022 49.5902 90.0615 50.1412 90.8152H50.1426ZM78.7599 97.3018C80.8273 96.4033 82.5301 95.1273 84.0906 93.6582L84.1044 93.6441C84.3323 93.4113 84.5574 93.1813 84.8281 92.9926C86.7615 91.7648 88.1839 90.0587 89.4752 88.1667C90.4792 86.6792 91.2484 85.0625 92.0163 83.4472C92.3739 82.695 92.7302 81.9427 93.1114 81.2075C93.1927 81.0283 93.2845 80.8543 93.3862 80.6865C93.2937 86.083 93.893 91.3844 94.5822 96.7355C89.7569 96.91 84.8529 97.086 79.9062 97.2621L79.8122 97.2663L78.7572 97.3032L78.7599 97.3018ZM125.404 95.8824C125.383 95.9278 125.348 95.9747 125.315 96.0215C125.279 96.0673 125.248 96.1168 125.221 96.1691C125.193 96.0989 125.175 96.0248 125.167 95.9491C125.157 95.8786 125.144 95.8085 125.129 95.7391C124.919 96.3153 124.524 96.2358 124.165 96.1649C124.058 96.1395 123.95 96.1243 123.84 96.1195C121.357 96.1677 118.827 96.1677 116.341 96.1677C113.949 96.1677 111.512 96.1677 109.12 96.2103C108.668 96.2103 108.202 96.2741 107.739 96.3366C107.397 96.382 107.057 96.4274 106.725 96.4487C104.842 96.541 102.955 96.5907 101.069 96.6361C100.982 96.6361 100.896 96.5453 100.787 96.4317C100.717 96.354 100.641 96.281 100.562 96.2131C100.481 96.3623 100.389 96.5047 100.286 96.639C100.253 96.5824 100.216 96.5288 100.175 96.4786C100.138 96.4289 100.095 96.3749 100.054 96.3096C100.008 96.453 99.9598 96.5935 99.9129 96.6872H99.7803C99.7473 96.4648 99.7086 96.2433 99.6643 96.0229C99.5842 95.6014 99.5041 95.1855 99.5041 94.7455C99.5041 93.9066 99.5538 93.0664 99.6021 92.2247C99.6367 91.6456 99.6712 91.065 99.6878 90.4845C99.712 90.0587 99.7152 89.6318 99.6974 89.2057C99.6933 88.9999 99.6878 88.7954 99.6878 88.5911C99.7969 88.6762 99.8894 88.7429 99.9833 88.8125L100.195 88.9686C100.286 88.7841 100.378 88.6422 100.471 88.5002C100.471 88.5002 100.378 88.4505 100.286 88.3583C100.373 88.3086 100.468 88.2135 100.468 88.1667C100.487 88.1084 100.51 88.0515 100.537 87.9963C100.573 87.933 100.596 87.8631 100.606 87.7905C100.606 87.5634 100.563 87.3576 100.521 87.1618C100.501 87.0709 100.482 86.9801 100.468 86.8921C100.512 86.8921 100.558 86.8921 100.606 86.841L100.882 88.2604H101.02C100.944 88.1255 101.002 87.9963 101.059 87.8658C101.142 87.6813 101.225 87.491 100.929 87.2696C100.902 87.2412 100.922 87.1305 100.943 87.0141C100.96 86.942 100.971 86.8683 100.975 86.7941C100.872 86.5776 100.783 86.3548 100.707 86.127C100.674 86.0341 100.641 85.9414 100.608 85.8488C100.653 85.8034 100.791 85.7537 100.929 85.7069L100.75 85.609C100.66 85.5553 100.567 85.5097 100.469 85.4727C100.929 85.044 100.929 84.807 100.515 84.3344C100.548 84.3196 100.581 84.3077 100.616 84.2989C100.664 84.2847 100.699 84.2733 100.699 84.2449C100.699 83.8177 100.699 83.3919 100.609 82.9689C100.589 82.8423 100.579 82.714 100.581 82.5857C100.574 82.2166 100.569 81.8518 100.057 81.6404C100.099 81.7747 100.161 81.9015 100.24 82.0165C100.24 82.0165 100.101 82.0662 99.964 82.1613C99.5745 81.7908 99.5966 81.3381 99.6187 80.8341C99.6417 80.5503 99.6343 80.2647 99.5966 79.9825C99.9184 80.0762 100.149 80.1713 100.378 80.2692C100.32 80.0822 100.247 79.9 100.161 79.7242C100.069 79.5309 99.9883 79.3323 99.9184 79.1295H99.732V76.004C99.732 76.0324 99.8355 76.0438 99.9598 76.058C100.054 76.0679 100.159 76.0792 100.239 76.1005C100.239 76.0764 100.25 76.0523 100.261 76.0295C100.273 76.0072 100.28 75.9826 100.282 75.9572C100.204 75.8553 100.123 75.7564 100.039 75.6605C99.9483 75.557 99.8609 75.4509 99.7762 75.3426L99.8673 75.2475C99.5649 74.86 99.6367 74.3419 99.6712 74.0921C99.6781 74.0522 99.6826 74.0119 99.685 73.9715V70.6572C99.8963 70.8744 99.8645 71.1213 99.8369 71.3527C99.8038 71.6252 99.7734 71.875 100.146 72.0298V71.5571H100.098C100.076 71.2022 100.065 70.8474 100.054 70.4926V70.4912C100.041 70.1363 100.03 69.7814 100.008 69.4266H99.917C99.8982 69.4645 99.8825 69.5039 99.8701 69.5444C99.8576 69.5813 99.8466 69.6168 99.8217 69.6651H99.732L100.008 58.3498C100.132 58.5144 100.26 58.6777 100.385 58.8395C100.726 59.2752 101.059 59.6996 101.294 60.1453C102.109 61.6754 103.111 63.0366 104.117 64.402C104.42 64.8136 104.724 65.2253 105.021 65.6397C105.846 66.8079 106.619 68.0527 107.379 69.279C107.637 69.6949 107.894 70.1093 108.151 70.5167C108.758 71.4677 109.356 72.4186 109.954 73.3711C110.576 74.3604 111.197 75.3497 111.83 76.3376C112.749 77.8081 113.717 79.2757 114.68 80.6965C115.517 81.92 116.401 83.1023 117.282 84.2847L117.396 84.4365C117.793 84.9901 118.202 85.5451 118.612 86.0986V86.1C119.007 86.6352 119.402 87.1688 119.786 87.704L119.827 87.7622C120.734 89.068 121.64 90.3738 122.548 91.6328C122.974 92.2488 123.443 92.8662 123.912 93.4837L124.016 93.6199C124.234 93.9137 124.534 94.1536 124.785 94.3566L124.985 94.5184C124.941 94.5184 124.894 94.5184 124.803 94.4715C124.848 94.5326 124.888 94.5894 124.924 94.6419C125 94.7483 125.061 94.8335 125.125 94.8974C125.631 95.1813 125.677 95.4651 125.401 95.8923L125.404 95.8824ZM127.751 84.0476V83.7169C127.751 83.7453 127.755 83.7808 127.76 83.8163C127.769 83.8943 127.782 83.9809 127.75 84.0476H127.751ZM129.315 63.1714C129.307 63.1703 129.3 63.1673 129.294 63.1629L129.295 63.1586L129.315 63.1728V63.1714ZM129.294 63.1629C129.176 63.0675 129.064 62.9631 128.961 62.8506L128.947 62.8364C128.928 62.8961 128.925 62.9542 128.921 63.0153C128.915 63.1047 128.91 63.1998 128.855 63.3119C128.833 63.2438 128.744 63.2197 128.66 63.197C128.572 63.1728 128.489 63.1501 128.489 63.0777C128.464 63.4085 128.533 63.7391 128.602 64.0713C128.671 64.402 128.74 64.7341 128.715 65.0649C128.825 65.0132 128.941 64.9769 129.061 64.957C129.254 64.9116 129.465 64.8605 129.544 64.781C129.595 64.8301 129.66 64.8626 129.729 64.8747C128.808 65.5858 129.038 66.294 129.453 67.1031L129.494 67.184C129.605 67.387 129.784 67.7177 129.544 68.0484C129.482 68.1137 129.527 68.2655 129.576 68.4316C129.599 68.5097 129.623 68.5877 129.636 68.6644H129.772V68.7538L129.357 68.8972C129.29 68.8205 129.213 68.7537 129.128 68.6985C128.942 68.558 128.715 68.3862 128.715 68.2329V70.6515C129.032 70.7509 129.13 71.0915 129.221 71.4038C129.262 71.5472 129.301 71.6849 129.359 71.7885C129.439 71.673 129.502 71.5457 129.545 71.4109L129.594 71.4535L129.588 71.4847C129.542 71.7586 129.497 72.0326 129.409 72.308L129.363 72.5109V72.5123C129.288 72.8572 129.217 73.1795 129.181 73.5371C129.181 73.5599 129.203 73.5967 129.225 73.6322C129.247 73.6677 129.268 73.7032 129.268 73.7259C128.95 74.4711 128.943 75.2716 128.935 76.0679C128.941 76.5342 128.915 77.0005 128.857 77.4631C128.78 77.9528 128.788 78.4581 128.794 78.9705C128.801 79.3977 128.806 79.8292 128.765 80.2579C128.67 81.0627 128.485 81.9143 128.302 82.7191C128.255 82.8639 128.163 82.9079 127.936 83.003C128.026 82.4352 127.981 82.0563 127.888 81.5353C127.863 81.5353 127.699 81.4502 127.536 81.3678C127.426 81.3059 127.312 81.2514 127.195 81.2046C127.195 81.6162 127.334 82.1144 127.474 82.6141C127.561 82.9235 127.648 83.2343 127.702 83.5225C127.554 83.4568 127.41 83.3829 127.271 83.301C127.173 83.2417 127.072 83.1896 126.967 83.1449C126.905 83.5225 126.884 83.9838 126.863 84.4323C126.852 84.6594 126.843 84.8794 126.827 85.0852C126.804 85.3166 126.695 85.5351 126.584 85.758C126.466 85.995 126.344 86.2377 126.321 86.5046C126.321 86.6252 126.376 86.7274 126.439 86.841C126.525 86.9999 126.623 87.1773 126.597 87.4541H126.964C126.964 86.9872 127.065 86.5443 127.167 86.0944C127.273 85.6331 127.38 85.1661 127.38 84.6608H127.517C127.534 84.6991 127.568 84.736 127.597 84.7701C127.644 84.824 127.684 84.8695 127.656 84.8978C127.629 85.0433 127.599 85.1881 127.566 85.3322C127.479 85.7253 127.389 86.1299 127.425 86.5088C127.425 86.6252 127.463 86.7402 127.501 86.8594C127.558 87.0326 127.617 87.2114 127.565 87.4073C127.467 87.7309 127.405 88.0646 127.378 88.4023C127.363 88.3299 127.346 88.2579 127.327 88.1865C127.302 88.1037 127.288 88.0178 127.286 87.9311C127.262 87.9311 127.151 87.9168 127.036 87.9055C126.92 87.8941 126.801 87.8814 126.779 87.8814C126.756 88.0276 126.841 88.1752 126.925 88.3143C127.003 88.4463 127.077 88.5712 127.055 88.6862C127.028 88.712 126.995 88.7309 126.96 88.7415C126.937 88.7514 126.908 88.7628 126.872 88.7813L125.352 86.5074C124.144 84.7009 122.947 82.886 121.762 81.0627C121.452 80.6109 121.176 80.1365 120.933 79.6433C119.511 77.1238 117.928 74.7033 116.196 72.3974C115.357 71.2959 114.626 70.1377 113.89 68.9696C113.455 68.2826 113.02 67.5928 112.559 66.9086C111.966 66.0031 111.373 65.1103 110.779 64.2175V64.2161C110.222 63.38 109.667 62.5455 109.112 61.6981C108.954 61.4865 108.79 61.2792 108.622 61.0764C108.34 60.7301 108.055 60.3809 107.823 59.9949C107.231 59.0205 106.653 58.0368 106.09 57.044C105.533 56.0625 104.962 55.0897 104.376 54.1257C103.611 52.9251 102.822 51.7406 102.009 50.573L101.201 49.3892C100.882 48.935 100.562 48.444 100.24 47.95L100.097 47.7314C100.039 47.6326 100.007 47.5201 100.005 47.4049V47.4035C99.9069 46.3796 99.83 45.3536 99.7748 44.3263C99.7748 43.8579 99.7982 43.3909 99.8203 42.9183C99.8438 42.4329 99.8673 41.9418 99.8673 41.4379V40.5863C99.8673 40.467 99.8783 40.3606 99.8894 40.2541C99.9005 40.1477 99.9115 40.0412 99.9115 39.9206C99.9361 39.8923 99.9583 39.8619 99.9778 39.8297C99.9982 39.7961 100.021 39.7643 100.047 39.7346C99.6049 39.7346 99.1575 39.729 98.7072 39.7233C97.805 39.7043 96.9025 39.7081 96.0005 39.7346C95.1249 39.7786 94.665 39.3997 94.067 38.7368C92.9015 37.3785 91.9403 35.8938 90.9777 34.4091C90.5023 33.6652 90.0143 32.9298 89.5139 32.2034C88.083 30.1315 86.6259 28.0789 85.1429 26.0462C84.574 25.2584 84.0036 24.4819 83.4346 23.7042C82.8077 22.8483 82.1807 21.9924 81.5551 21.1237C81.0994 20.4779 80.6478 19.8321 80.1976 19.1848C79.329 17.9277 78.447 16.6804 77.5515 15.4434C75.8943 13.1724 74.1915 10.8971 72.4901 8.62611C72.0081 7.98738 71.493 7.36708 70.9655 6.72981C70.6258 6.32289 70.2892 5.91316 69.956 5.50062L70.0968 5.52333C70.6423 5.61134 71.1533 5.69368 71.6601 5.73909L73.8698 5.88246L75.0491 5.97608C76.3114 6.07405 77.5736 6.17201 78.8345 6.34944C79.6938 6.47511 80.5507 6.61799 81.4046 6.77809C81.939 6.87458 82.4776 6.97108 83.0231 7.06196C86.0613 7.58284 89.0512 8.43592 91.9486 9.42945C93.3185 9.88649 94.6554 10.4656 95.9908 11.0447L96.9658 11.4649C100.689 13.0276 104.233 14.9224 107.729 16.9096C108.555 17.3709 109.126 18.0451 109.708 18.7349C109.902 18.9635 110.096 19.1948 110.302 19.419L110.366 19.4857C111.542 20.7433 112.718 21.9981 113.846 23.2996C114.799 24.4317 115.733 25.5811 116.647 26.7473C116.999 27.1915 117.351 27.6373 117.71 28.0815C118.298 28.8096 118.899 29.5378 119.5 30.2674C120.072 30.9586 120.643 31.6513 121.205 32.3439C121.455 32.6335 121.665 32.9685 121.874 33.3006C121.97 33.4567 122.068 33.6129 122.171 33.7633C122.4 34.1181 122.639 34.4702 122.878 34.8222C123.405 35.5971 123.936 36.3764 124.379 37.2209C124.738 37.9306 124.987 38.7297 125.234 39.5217C125.549 40.5337 125.869 41.5443 126.194 42.5535V42.5549C126.401 43.2036 126.608 43.8537 126.815 44.5137C127.135 45.6023 127.409 46.7421 127.641 47.8734C127.725 48.2211 127.762 48.5788 127.798 48.9379C127.841 49.3594 127.884 49.7824 128.007 50.1912C128.148 50.6894 128.148 51.2117 128.148 51.7312C128.148 52.2521 128.148 52.7731 128.286 53.2727C128.306 53.3138 128.324 53.3635 128.345 53.4146C128.37 53.4813 128.396 53.5509 128.424 53.6048C128.608 53.7908 128.746 53.9823 128.469 54.2662C128.425 54.3117 128.425 54.499 128.469 54.6424C128.538 54.5742 128.58 54.5047 128.635 54.4167L128.701 54.3117C128.701 54.3684 128.717 54.4082 128.729 54.4408L128.74 54.4735C128.743 54.4826 128.745 54.4922 128.746 54.5018C128.746 54.5629 128.74 54.6253 128.735 54.6878C128.717 54.8138 128.721 54.9421 128.746 55.0668C128.746 55.1377 128.795 55.2314 128.84 55.3166L128.881 55.3975C128.939 55.3379 128.996 55.2981 129.074 55.2413C129.121 55.2059 129.178 55.1647 129.248 55.1094C129.663 56.7218 129.71 58.3313 129.71 59.9877C129.71 60.3483 129.723 60.7102 129.739 61.0707C129.788 62.2701 129.835 63.4638 129.344 64.6291C129.413 64.3665 129.364 64.1153 129.317 63.8697C129.272 63.6299 129.228 63.3971 129.294 63.1629ZM99.9184 81.5836C99.9626 81.5836 100.01 81.6333 100.01 81.6333L99.9626 81.5793C99.9626 81.5581 99.9626 81.5481 99.9585 81.5453C99.9557 81.5453 99.9502 81.5481 99.9405 81.5566C99.9325 81.564 99.9247 81.5716 99.917 81.5793L99.9184 81.5836ZM107.185 128.362C106.678 128.74 106.172 129.072 105.528 129.214C105.507 129.193 105.49 129.167 105.478 129.14C105.467 129.114 105.452 129.091 105.434 129.07C105.68 128.91 105.935 128.751 106.191 128.591C106.464 128.42 106.738 128.248 106.999 128.077C107.021 128.119 107.054 128.162 107.086 128.206C107.123 128.254 107.156 128.305 107.184 128.359L107.185 128.362ZM20.93 64.2061L21.024 64.0841C21.5004 63.4652 21.9782 62.8435 22.4933 62.2218C22.5154 62.246 22.6232 62.2829 22.7281 62.3198C22.8056 62.3404 22.8803 62.3709 22.9505 62.4106L22.7737 62.642C22.2903 63.275 21.6965 64.0528 21.2491 64.6831C21.194 64.615 21.1459 64.5412 21.1054 64.4631C21.0405 64.3495 20.9756 64.2359 20.9259 64.2076H20.93V64.2061ZM7.86291 87.4087C7.68338 87.0141 7.50385 86.6068 7.32294 86.2008C7.13512 85.7793 6.94868 85.3563 6.76225 84.9475C6.88992 84.8643 7.0285 84.8003 7.17378 84.7573C7.50523 85.2499 7.7179 85.8048 7.92782 86.3555C8.0383 86.6479 8.15016 86.9375 8.27859 87.2185C8.27859 87.2185 7.91263 87.4073 7.86429 87.4073V87.4087H7.86291ZM19.596 64.6845C19.5307 64.6504 19.4714 64.6053 19.4206 64.551L19.4109 64.5411C19.2728 64.7526 19.0339 65.0464 18.795 65.3402C18.5519 65.6383 18.3089 65.9363 18.1708 66.1507C18.1929 66.1748 18.3268 66.128 18.4636 66.0811C18.603 66.0343 18.7453 65.986 18.7674 66.0102C18.9055 65.7972 19.0436 65.5716 19.1817 65.3459C19.3198 65.1216 19.4579 64.8974 19.596 64.6845ZM19.6844 66.6702C19.7327 66.5268 19.8225 66.3863 19.9164 66.2444C20.0075 66.2444 20.1442 66.1961 20.1442 66.1961C20.234 66.0371 20.281 65.8995 20.3238 65.7689C20.3735 65.6269 20.4191 65.4921 20.5144 65.3431C20.4923 65.3218 20.4688 65.309 20.4453 65.2976C20.4218 65.2863 20.3984 65.2735 20.3749 65.2494C20.2453 65.3424 20.1177 65.4385 19.9923 65.5375C19.8446 65.6511 19.6954 65.7675 19.5477 65.8696C19.6402 65.9619 19.6402 66.0116 19.6402 66.1067C19.2728 66.0584 19.1333 66.2486 18.9497 66.7681C18.9221 66.8533 18.8323 66.903 18.7149 66.9682C18.632 67.0151 18.5381 67.0676 18.4428 67.1443C18.4221 67.1882 18.4014 67.2621 18.3766 67.3501C18.3462 67.4565 18.3103 67.5857 18.2592 67.7149L18.3061 67.7645C18.2136 67.8596 18.0755 67.9079 18.0755 67.9079C17.9374 68.0498 17.7882 68.179 17.6391 68.3095C17.488 68.4374 17.342 68.5714 17.2013 68.7113L17.1985 68.7212C17.1482 68.8542 17.1184 68.9945 17.1102 69.1371C17.2151 69.0306 17.3422 68.8958 17.4803 68.7467C17.7744 68.4345 18.1183 68.0683 18.3987 67.8099L18.447 67.8596C18.5367 67.7205 18.6155 67.5814 18.6956 67.4423C18.777 67.2976 18.8585 67.1528 18.9538 67.008C18.9718 67.0285 18.9863 67.052 18.9966 67.0776C19.0081 67.1047 19.024 67.1296 19.0436 67.1513C18.9674 67.36 18.8938 67.5696 18.8226 67.7801C18.7599 67.9648 18.6954 68.1489 18.6293 68.3323L18.5423 68.3791C18.4663 68.4217 18.3959 68.4628 18.3959 68.4274C18.3061 68.4983 18.226 68.5792 18.1473 68.6601C18.0644 68.7439 17.983 68.8276 17.8891 68.9L17.0604 69.4678C16.6848 69.8169 16.3078 70.1335 15.9059 70.4713L15.6352 70.6984C15.5013 70.917 15.3659 71.1256 15.2278 71.3399C15.0359 71.6394 14.837 71.9503 14.6202 72.308C15.1754 72.1646 15.3135 72.4031 15.2693 72.8785C15.7913 72.9538 15.9211 72.6231 16.0495 72.2938C16.0786 72.2185 16.1076 72.1433 16.1421 72.0723L16.178 71.9843C16.2139 71.8878 16.2581 71.7743 16.3258 71.7388C16.5868 71.5017 16.8643 71.2817 17.1502 71.0575C17.3187 70.9255 17.4886 70.7921 17.6598 70.6515C17.7523 70.5564 17.7523 70.3648 17.7523 70.2243C17.7523 70.1973 17.6778 70.186 17.5866 70.1718C17.5174 70.1635 17.4491 70.1492 17.3822 70.1292C17.6695 69.7999 18.0451 69.3131 18.3876 68.8731C18.5381 68.6772 18.6818 68.4912 18.8074 68.3323C19.0394 68.1889 19.2673 67.9987 19.2673 67.8568C19.2286 67.4125 19.4565 67.245 19.7548 67.0875C19.5435 68.1165 18.9248 68.9937 18.3075 69.174C18.4912 69.2705 18.6749 69.3656 18.8143 69.3187C18.9138 69.2832 18.9897 69.1484 19.0588 69.0207C19.085 68.9753 19.1099 68.9298 19.1347 68.8915L20.3763 67.0435L20.7919 66.3338L20.6083 66.1436L20.6069 66.1493C20.5171 66.3111 20.4274 66.4615 20.3362 66.6134C20.2437 66.7695 20.1498 66.9257 20.0559 67.096L19.897 67.0136L19.915 67.0052C19.73 66.8604 19.6816 66.7213 19.6816 66.6758L19.6844 66.6702ZM5.62567 86.9559C5.51105 86.9446 5.40195 86.9332 5.29147 86.9332C5.24589 86.9801 5.42957 87.2654 5.47652 87.3136H6.44185C6.44185 87.1944 6.4308 87.0865 6.41837 86.9801C6.40733 86.8736 6.39628 86.7672 6.39628 86.6494H6.25679C6.25679 86.743 6.19879 86.7771 6.14079 86.814C6.08279 86.8495 6.0234 86.885 6.0234 86.9801C5.8905 86.9784 5.75774 86.9699 5.62567 86.9545V86.9559ZM4.92136 84.7545C4.92181 84.7545 4.92227 84.7545 4.92274 84.7545L4.92136 84.7573V84.7545ZM4.78878 84.6338C4.83573 84.6736 4.8813 84.7133 4.92136 84.7545C4.92274 84.7091 4.96693 84.6608 5.01389 84.6168C4.97107 84.4607 4.93793 84.3131 4.90479 84.1683C4.86887 84.0065 4.83297 83.8447 4.78326 83.6715L4.77634 83.6828C4.64239 83.9156 4.50981 84.147 4.55539 84.3301C4.55539 84.4309 4.67139 84.5317 4.79016 84.6338H4.78878ZM6.07312 81.7284V81.7255L6.0745 81.7284H6.07312ZM6.07312 81.7284C5.98197 81.7284 5.70577 81.8717 5.66019 81.9186C5.75134 82.1513 5.85354 82.3969 5.95573 82.6424C6.06069 82.8937 6.16565 83.1463 6.25955 83.3862C6.30375 83.3422 6.57995 83.1974 6.62552 83.1974C6.52268 82.9316 6.42232 82.6647 6.32446 82.3969C6.2416 82.1698 6.15874 81.9455 6.0745 81.7284H6.07312ZM109.095 126.818C108.848 126.875 108.649 126.92 108.478 126.991C108.434 127.078 108.388 127.163 108.34 127.248C108.291 127.333 108.245 127.415 108.198 127.512C108.245 127.512 108.29 127.56 108.337 127.607C108.565 127.373 108.823 127.171 109.138 126.924L109.352 126.757L109.095 126.818ZM52.3398 26.6777C52.2072 26.7629 52.0746 26.8495 51.9324 26.9489L51.9282 26.9517C51.8951 26.9843 51.8619 26.9943 51.8619 26.9971H51.8813C51.9089 27.132 51.92 27.2526 51.9338 27.3917C51.9434 27.4967 51.9545 27.6117 51.9738 27.7522C52.0953 27.5734 52.2031 27.4087 52.3053 27.2526C52.4751 26.9929 52.6298 26.7572 52.8038 26.5216L52.7126 26.4279C52.5815 26.5187 52.4599 26.5983 52.3398 26.6777ZM65.7273 50.759L65.4097 50.9037H65.4083C65.3857 50.9702 65.356 51.034 65.3199 51.0939C65.2605 51.2075 65.1984 51.3295 65.2232 51.3295C65.331 51.3082 65.4994 51.2131 65.6762 51.1138C65.8778 51.0002 66.0905 50.881 66.2369 50.8554C66.375 50.8554 66.5587 50.9037 66.6982 50.9534C66.6982 50.7632 66.6982 50.5716 66.7437 50.2877C66.3667 50.4666 66.0408 50.6142 65.7273 50.759ZM100.179 91.4681C100.068 91.3446 99.9488 91.2127 99.917 91.0537L99.8853 91.4227C99.8507 91.8159 99.8231 92.1466 99.8231 92.4731C99.8231 92.5696 99.9156 92.7569 99.9626 92.7569C100.048 92.8038 100.217 92.7214 100.313 92.6746L100.33 92.6661C100.378 92.6136 100.41 92.5473 100.421 92.4759C100.356 92.432 100.287 92.3927 100.217 92.3581C100.148 92.3212 100.079 92.2857 100.01 92.2346C100.588 91.9223 100.399 91.7123 100.179 91.4681Z" fill="#DD3706"/>
<path d="M138.201 315.26L84.3064 270.599C81.6791 268.423 77.8627 268.468 75.2882 270.707L65.2366 279.451C64.302 280.264 63.5517 281.267 63.0358 282.393C62.5211 283.518 62.2532 284.74 62.2503 285.976V303.079L23.056 270.599C20.4287 268.423 16.6123 268.468 14.0379 270.707L3.98629 279.451C3.0487 280.266 2.29664 281.273 1.78069 282.404C1.26596 283.532 0.999725 284.758 1 285.999V356.409C1.00295 357.645 1.27077 358.867 1.78543 359.992C2.3013 361.118 3.05164 362.121 3.98629 362.934L14.0379 371.678C16.6118 373.916 20.4275 373.962 23.0549 371.787L62.2503 339.327V356.409C62.2532 357.645 62.5211 358.867 63.0358 359.992C63.5516 361.118 64.302 362.121 65.2366 362.934L75.2882 371.678C77.8622 373.916 81.6778 373.962 84.3052 371.787L138.201 327.125C139.076 326.4 139.78 325.491 140.265 324.463C141.245 322.385 141.245 319.978 140.265 317.9C139.78 316.872 139.076 315.963 138.201 315.238V315.26Z" fill="url(#paint0_linear_1_2)"/>
<path d="M62.2504 303.08V339.328L76.9504 327.148C77.8256 326.423 78.5304 325.514 79.0149 324.486C80.5178 321.301 79.6677 317.501 76.9504 315.26L62.2504 303.08Z" fill="url(#paint1_linear_1_2)"/>
<path d="M381.836 291.679V274H364.118V278.912H322.775V274H305.058V278.912H263.717V274H246V291.679H250.922V313.287H246V330.969H250.922V352.576H246V370.255H263.717V365.345H305.059V370.255H322.776V365.345H364.117V370.255H381.836V352.576H376.914V330.969H381.836V313.288H376.914V291.681H381.836V291.679ZM308.996 277.93H318.84V287.75H308.996V277.93ZM249.937 287.75V277.93H259.781V287.75H249.937ZM249.937 327.038V317.218H259.781V327.038H249.937ZM259.781 366.326H249.937V356.504H259.781V366.326ZM318.84 366.326H308.996V356.504H318.84V366.326ZM364.117 357.486H322.778V352.575H305.061V357.486H263.717V352.575H258.796V330.969H263.717V313.288H258.796V291.681H263.717V286.768H305.059V291.679H322.776V286.771H364.117V291.681H369.039V313.288H364.118V330.969H369.039V352.576H364.118V357.488L364.117 357.486ZM377.897 356.503V366.326H368.055V356.504H377.897V356.503ZM377.897 317.216V327.038H368.055V317.218H377.897V317.216ZM368.055 287.751V277.93H377.897V287.75H368.055V287.751Z" fill="url(#paint2_linear_1_2)"/>
<path d="M315.886 315.252H311.949V320.164H307.028V324.092H311.948V329.003H315.886V324.092H320.808V320.165H315.886V315.254V315.252Z" fill="#1960C4"/>
<path fill-rule="evenodd" clip-rule="evenodd" d="M386.944 394.004H406L373.341 361.416L386.944 394.004Z" fill="url(#paint3_linear_1_2)"/>
<path fill-rule="evenodd" clip-rule="evenodd" d="M373.341 361.416V407.578L386.944 394.004" fill="url(#paint4_linear_1_2)"/>
<path fill-rule="evenodd" clip-rule="evenodd" d="M552.226 352.131C552.226 350.393 553.483 349.615 555.061 350.404L562.027 353.886C563.592 354.669 564.862 356.726 564.862 358.45V396.385C564.862 398.123 563.605 398.901 562.027 398.112L555.061 394.63C553.496 393.847 552.226 391.791 552.226 390.066V352.131ZM555.148 389.477C556.056 391.972 558.309 393.441 560.181 392.76C562.051 392.08 562.831 389.507 561.923 387.011C561.016 384.517 558.764 383.046 556.892 383.729C555.022 384.408 554.242 386.983 555.15 389.478L555.148 389.477Z" fill="#4A4A4A"/>
<path fill-rule="evenodd" clip-rule="evenodd" d="M563.757 354.104L560.598 355.683V399.909L563.757 398.33V354.104ZM554.065 382.683L553.705 389.639L558.195 395.294L552.389 395.122L549.936 388.576L550.536 382.855L554.065 382.683Z" fill="#4A4A4A"/>
<path fill-rule="evenodd" clip-rule="evenodd" d="M549.067 353.71C549.067 351.973 550.324 351.194 551.902 351.984L558.868 355.465C560.433 356.249 561.703 358.305 561.703 360.03V397.965C561.703 399.702 560.446 400.481 558.868 399.691L551.902 396.21C550.337 395.427 549.067 393.37 549.067 391.645V353.71ZM551.989 391.056C552.897 393.552 555.15 395.021 557.022 394.34C558.892 393.659 559.672 391.086 558.764 388.59C557.857 386.096 555.605 384.626 553.733 385.308C551.863 385.987 551.083 388.562 551.991 391.058L551.989 391.056Z" fill="black"/>
<path fill-rule="evenodd" clip-rule="evenodd" d="M577.498 339.495C577.498 337.757 578.756 336.979 580.333 337.768L587.299 341.25C588.864 342.033 590.134 344.089 590.134 345.814V383.749C590.134 385.487 588.877 386.265 587.299 385.476L580.333 381.994C578.768 381.211 577.498 379.154 577.498 377.43V339.495ZM580.42 376.841C581.329 379.336 583.581 380.805 585.453 380.124C587.323 379.444 588.103 376.871 587.195 374.375C586.288 371.881 584.036 370.41 582.164 371.093C580.294 371.772 579.514 374.346 580.422 376.842L580.42 376.841Z" fill="#4A4A4A"/>
<path fill-rule="evenodd" clip-rule="evenodd" d="M589.029 341.467L585.87 343.047V387.273L589.029 385.694V341.467ZM579.337 370.047L578.977 377.003L583.467 382.658L577.661 382.486L575.208 375.94L575.808 370.219L579.337 370.047Z" fill="#4A4A4A"/>
<path fill-rule="evenodd" clip-rule="evenodd" d="M574.339 341.074C574.339 339.337 575.597 338.558 577.174 339.348L584.14 342.829C585.705 343.612 586.975 345.669 586.975 347.394V385.329C586.975 387.066 585.718 387.845 584.14 387.055L577.174 383.574C575.609 382.791 574.339 380.734 574.339 379.009V341.074ZM577.261 378.42C578.17 380.916 580.422 382.385 582.294 381.704C584.164 381.023 584.944 378.45 584.036 375.954C583.129 373.46 580.877 371.99 579.005 372.672C577.135 373.351 576.355 375.926 577.263 378.422L577.261 378.42Z" fill="black"/>
<path fill-rule="evenodd" clip-rule="evenodd" d="M508 271.59L571.18 303.177V382.156L508 350.565V271.59Z" fill="#F22B2B"/>
<path fill-rule="evenodd" clip-rule="evenodd" d="M634.36 271.59L571.18 303.177V382.156L634.36 350.565V271.59Z" fill="#FF5E5E"/>
<path fill-rule="evenodd" clip-rule="evenodd" d="M612.247 342.668V336.35L602.77 341.088V347.406C602.77 347.406 602.77 351.355 607.509 348.986C612.247 346.617 612.247 342.668 612.247 342.668ZM623.02 311.119C624.212 307.84 623.185 304.456 620.726 303.561C618.267 302.667 615.305 304.599 614.113 307.878C612.919 311.157 613.945 314.54 616.403 315.436C618.864 316.33 621.826 314.398 623.018 311.119H623.02ZM597.748 323.755C598.94 320.476 597.913 317.093 595.454 316.197C592.995 315.303 590.033 317.235 588.841 320.514C587.647 323.793 588.673 327.176 591.131 328.072C593.592 328.966 596.553 327.034 597.746 323.755H597.748ZM530.113 303.973C530.113 303.1 529.484 302.076 528.711 301.689L525.198 299.933C524.424 299.546 523.795 299.952 523.795 300.814V316.603C523.795 317.476 524.424 318.5 525.198 318.887L528.711 320.643C529.484 321.03 530.113 320.624 530.113 319.762V303.973ZM552.226 315.03C552.226 314.156 551.598 313.133 550.824 312.746L547.311 310.989C546.537 310.602 545.908 311.008 545.908 311.871V327.659C545.908 328.533 546.537 329.556 547.311 329.943L550.824 331.7C551.598 332.087 552.226 331.681 552.226 330.818V315.03ZM542.749 343.426C542.749 343.426 542.749 339.477 538.011 337.108C533.272 334.739 533.272 338.688 533.272 338.688V345.006L542.749 349.744V343.426Z" fill="black"/>
<path fill-rule="evenodd" clip-rule="evenodd" d="M508 277.908L571.18 246.32L634.36 277.908V271.59L571.177 240L508 271.59V277.908Z" fill="url(#paint5_linear_1_2)"/>
<path fill-rule="evenodd" clip-rule="evenodd" d="M558.544 285.806C555.053 285.806 552.226 283.684 552.226 281.067C552.226 278.45 555.053 276.329 558.544 276.329C562.035 276.329 564.862 278.45 564.862 281.067C564.862 283.684 562.035 285.806 558.544 285.806ZM583.816 273.17C580.326 273.17 577.498 271.048 577.498 268.431C577.498 265.814 580.326 263.693 583.816 263.693C587.307 263.693 590.134 265.814 590.134 268.431C590.134 271.048 587.307 273.17 583.816 273.17Z" fill="black"/>
<defs>
<linearGradient id="paint0_linear_1_2" x1="-6.11987" y1="350.725" x2="116.942" y2="284.346" gradientUnits="userSpaceOnUse">
<stop offset="1e-05" stop-color="#FEB608"/>
<stop offset="0.08" stop-color="#FE9C16"/>
<stop offset="0.21" stop-color="#FF762A"/>
<stop offset="0.33" stop-color="#FF5B39"/>
<stop offset="0.43" stop-color="#FF4B42"/>
<stop offset="0.51" stop-color="#FF4545"/>
<stop offset="0.62" stop-color="#FE3F4A"/>
<stop offset="0.75" stop-color="#F92E59"/>
<stop offset="0.91" stop-color="#F31372"/>
<stop offset="0.98" stop-color="#EF047F"/>
</linearGradient>
<linearGradient id="paint1_linear_1_2" x1="55.3927" y1="329.595" x2="73.4813" y2="310.982" gradientUnits="userSpaceOnUse">
<stop offset="1e-05" stop-color="#E34001"/>
<stop offset="0.34" stop-color="#D7291B"/>
<stop offset="1" stop-color="#C1004A"/>
</linearGradient>
<linearGradient id="paint2_linear_1_2" x1="313.918" y1="370.254" x2="313.918" y2="274" gradientUnits="userSpaceOnUse">
<stop offset="1e-05" stop-color="#1D40B2"/>
<stop offset="1" stop-color="#1680D6"/>
</linearGradient>
<linearGradient id="paint3_linear_1_2" x1="378.518" y1="380.686" x2="400.817" y2="374.7" gradientUnits="userSpaceOnUse">
<stop offset="1e-05" stop-color="#1C1C1C"/>
<stop offset="1" stop-color="#3D3E3F"/>
</linearGradient>
<linearGradient id="paint4_linear_1_2" x1="2053.34" y1="5627.23" x2="2290.23" y2="5608.52" gradientUnits="userSpaceOnUse">
<stop offset="1e-05" stop-color="#1C1C1C"/>
<stop offset="1" stop-color="#3D3E3F"/>
</linearGradient>
<linearGradient id="paint5_linear_1_2" x1="508" y1="274.03" x2="634.36" y2="274.03" gradientUnits="userSpaceOnUse">
<stop offset="1e-05" stop-color="#F22B2B"/>
<stop offset="1" stop-color="#FF5E5E"/>
</linearGradient>
</defs>
</svg>
